<mxfile host="app.diagrams.net" modified="2023-04-19T00:37:03.070Z" agent="Mozilla/5.0 (Windows NT 10.0; Win64; x64) AppleWebKit/537.36 (KHTML, like Gecko) Chrome/112.0.0.0 Safari/537.36" etag="6miwU_o0QoB5BfwfxTWb" version="21.1.8" type="device">
  <diagram name="Page-1" id="u4IVTh8O1Lo2IphfNstv">
    <mxGraphModel dx="2514" dy="-347" grid="1" gridSize="10" guides="1" tooltips="1" connect="1" arrows="1" fold="1" page="1" pageScale="1" pageWidth="827" pageHeight="1169" math="0" shadow="0">
      <root>
        <mxCell id="0" />
        <mxCell id="1" parent="0" />
        <mxCell id="JWRoyy8OLOyvuGsEvahi-104" value="" style="rounded=1;whiteSpace=wrap;html=1;glass=0;strokeWidth=3;shadow=1;verticalAlign=middle;labelBackgroundColor=none;horizontal=1;fillColor=#e1d5e7;strokeColor=#9673a6;" vertex="1" parent="1">
          <mxGeometry x="-400" y="1520" width="240" height="320" as="geometry" />
        </mxCell>
        <mxCell id="5UCkynYuIxP1ABJnEuy5-2" value="" style="rounded=1;whiteSpace=wrap;html=1;glass=0;strokeWidth=3;shadow=1;verticalAlign=middle;labelBackgroundColor=none;horizontal=1;strokeColor=#6c8ebf;fillColor=#dae8fc;" parent="1" vertex="1">
          <mxGeometry x="400" y="1520" width="240" height="320" as="geometry" />
        </mxCell>
        <mxCell id="5UCkynYuIxP1ABJnEuy5-4" value="" style="rounded=1;whiteSpace=wrap;html=1;glass=0;strokeWidth=3;shadow=1;verticalAlign=middle;labelBackgroundColor=none;horizontal=1;strokeColor=#82b366;fillColor=#d5e8d4;" parent="1" vertex="1">
          <mxGeometry x="800" y="1520" width="240" height="320" as="geometry" />
        </mxCell>
        <mxCell id="5UCkynYuIxP1ABJnEuy5-7" value="&lt;font style=&quot;font-size: 20px;&quot;&gt;&lt;b style=&quot;font-size: 20px;&quot;&gt;MySQL DB&lt;/b&gt;&lt;/font&gt;" style="text;html=1;strokeColor=none;fillColor=none;align=center;verticalAlign=middle;whiteSpace=wrap;rounded=0;fontSize=20;" parent="1" vertex="1">
          <mxGeometry x="867.19" y="1530" width="105.63" height="40" as="geometry" />
        </mxCell>
        <mxCell id="5UCkynYuIxP1ABJnEuy5-1" value="" style="rounded=1;whiteSpace=wrap;html=1;glass=0;strokeWidth=3;shadow=1;verticalAlign=middle;labelBackgroundColor=none;horizontal=1;strokeColor=#d79b00;fillColor=#ffe6cc;" parent="1" vertex="1">
          <mxGeometry y="1520" width="240" height="320" as="geometry" />
        </mxCell>
        <mxCell id="5UCkynYuIxP1ABJnEuy5-5" value="&lt;font style=&quot;font-size: 20px;&quot;&gt;&lt;b style=&quot;font-size: 20px;&quot;&gt;Front End&lt;/b&gt;&lt;/font&gt;" style="text;html=1;strokeColor=none;fillColor=none;align=center;verticalAlign=middle;whiteSpace=wrap;rounded=0;fontSize=20;" parent="1" vertex="1">
          <mxGeometry x="69.38000000000001" y="1530" width="101.25" height="40" as="geometry" />
        </mxCell>
        <mxCell id="5UCkynYuIxP1ABJnEuy5-6" value="&lt;font style=&quot;font-size: 20px;&quot;&gt;&lt;b style=&quot;font-size: 20px;&quot;&gt;Back End&lt;/b&gt;&lt;/font&gt;" style="text;html=1;strokeColor=none;fillColor=none;align=center;verticalAlign=middle;whiteSpace=wrap;rounded=0;fontSize=20;" parent="1" vertex="1">
          <mxGeometry x="468.84000000000003" y="1530" width="102.31" height="40" as="geometry" />
        </mxCell>
        <mxCell id="JWRoyy8OLOyvuGsEvahi-67" value="&lt;font style=&quot;font-size: 20px;&quot;&gt;Express server&lt;/font&gt;" style="text;html=1;strokeColor=none;fillColor=none;align=center;verticalAlign=middle;whiteSpace=wrap;rounded=0;fontSize=20;" vertex="1" parent="1">
          <mxGeometry x="447.5" y="1750" width="145" height="30" as="geometry" />
        </mxCell>
        <mxCell id="JWRoyy8OLOyvuGsEvahi-75" value="" style="shape=flexArrow;endArrow=classic;html=1;rounded=0;exitX=1;exitY=0.25;exitDx=0;exitDy=0;entryX=0;entryY=0.25;entryDx=0;entryDy=0;fillColor=#ffe6cc;strokeColor=#d79b00;sketch=1;curveFitting=1;jiggle=2;" edge="1" parent="1" source="5UCkynYuIxP1ABJnEuy5-1" target="5UCkynYuIxP1ABJnEuy5-2">
          <mxGeometry width="50" height="50" relative="1" as="geometry">
            <mxPoint x="290" y="1655" as="sourcePoint" />
            <mxPoint x="340" y="1605" as="targetPoint" />
          </mxGeometry>
        </mxCell>
        <mxCell id="JWRoyy8OLOyvuGsEvahi-76" value="" style="shape=flexArrow;endArrow=classic;html=1;rounded=0;entryX=1;entryY=0.75;entryDx=0;entryDy=0;exitX=0;exitY=0.75;exitDx=0;exitDy=0;shadow=0;fillColor=#dae8fc;strokeColor=#6c8ebf;sketch=1;curveFitting=1;jiggle=2;" edge="1" parent="1" source="5UCkynYuIxP1ABJnEuy5-2" target="5UCkynYuIxP1ABJnEuy5-1">
          <mxGeometry width="50" height="50" relative="1" as="geometry">
            <mxPoint x="500" y="1690" as="sourcePoint" />
            <mxPoint x="550" y="1640" as="targetPoint" />
          </mxGeometry>
        </mxCell>
        <mxCell id="JWRoyy8OLOyvuGsEvahi-77" value="" style="shape=flexArrow;endArrow=classic;html=1;rounded=0;entryX=0;entryY=0.25;entryDx=0;entryDy=0;exitX=1;exitY=0.25;exitDx=0;exitDy=0;fillColor=#dae8fc;strokeColor=#6c8ebf;sketch=1;curveFitting=1;jiggle=2;" edge="1" parent="1" source="5UCkynYuIxP1ABJnEuy5-2" target="5UCkynYuIxP1ABJnEuy5-4">
          <mxGeometry width="50" height="50" relative="1" as="geometry">
            <mxPoint x="500" y="1690" as="sourcePoint" />
            <mxPoint x="550" y="1640" as="targetPoint" />
          </mxGeometry>
        </mxCell>
        <mxCell id="JWRoyy8OLOyvuGsEvahi-78" value="" style="shape=flexArrow;endArrow=classic;html=1;rounded=0;entryX=1;entryY=0.75;entryDx=0;entryDy=0;exitX=0;exitY=0.75;exitDx=0;exitDy=0;fillColor=#d5e8d4;strokeColor=#82b366;sketch=1;curveFitting=1;jiggle=2;" edge="1" parent="1" source="5UCkynYuIxP1ABJnEuy5-4" target="5UCkynYuIxP1ABJnEuy5-2">
          <mxGeometry width="50" height="50" relative="1" as="geometry">
            <mxPoint x="500" y="1690" as="sourcePoint" />
            <mxPoint x="550" y="1640" as="targetPoint" />
          </mxGeometry>
        </mxCell>
        <mxCell id="JWRoyy8OLOyvuGsEvahi-79" value="Req" style="text;html=1;strokeColor=none;fillColor=none;align=center;verticalAlign=middle;whiteSpace=wrap;rounded=0;fontSize=16;" vertex="1" parent="1">
          <mxGeometry x="290" y="1560" width="60" height="30" as="geometry" />
        </mxCell>
        <mxCell id="JWRoyy8OLOyvuGsEvahi-84" value="Res" style="text;html=1;strokeColor=none;fillColor=none;align=center;verticalAlign=middle;whiteSpace=wrap;rounded=0;fontSize=16;" vertex="1" parent="1">
          <mxGeometry x="290" y="1775" width="60" height="30" as="geometry" />
        </mxCell>
        <mxCell id="JWRoyy8OLOyvuGsEvahi-89" value="CRUD" style="text;html=1;strokeColor=none;fillColor=none;align=center;verticalAlign=middle;whiteSpace=wrap;rounded=0;fontSize=16;" vertex="1" parent="1">
          <mxGeometry x="690" y="1560" width="60" height="30" as="geometry" />
        </mxCell>
        <mxCell id="JWRoyy8OLOyvuGsEvahi-90" value="Data" style="text;html=1;strokeColor=none;fillColor=none;align=center;verticalAlign=middle;whiteSpace=wrap;rounded=0;fontSize=16;" vertex="1" parent="1">
          <mxGeometry x="690" y="1719" width="60" height="30" as="geometry" />
        </mxCell>
        <mxCell id="JWRoyy8OLOyvuGsEvahi-92" value="" style="image;html=1;image=img/lib/clip_art/computers/Database_128x128.png" vertex="1" parent="1">
          <mxGeometry x="880" y="1640" width="80" height="80" as="geometry" />
        </mxCell>
        <mxCell id="JWRoyy8OLOyvuGsEvahi-93" value="" style="image;html=1;image=img/lib/clip_art/computers/Server_Tower_128x128.png" vertex="1" parent="1">
          <mxGeometry x="480.00000000000006" y="1640" width="80" height="80" as="geometry" />
        </mxCell>
        <mxCell id="JWRoyy8OLOyvuGsEvahi-96" value="" style="image;html=1;image=img/lib/clip_art/computers/Monitor_128x128.png" vertex="1" parent="1">
          <mxGeometry x="-315" y="1590" width="70" height="70" as="geometry" />
        </mxCell>
        <mxCell id="JWRoyy8OLOyvuGsEvahi-97" value="" style="image;html=1;image=img/lib/clip_art/telecommunication/iPhone_128x128.png" vertex="1" parent="1">
          <mxGeometry x="-315" y="1709" width="70" height="70" as="geometry" />
        </mxCell>
        <mxCell id="JWRoyy8OLOyvuGsEvahi-100" value="&lt;font style=&quot;font-size: 20px;&quot;&gt;React app&lt;/font&gt;" style="text;html=1;strokeColor=none;fillColor=none;align=center;verticalAlign=middle;whiteSpace=wrap;rounded=0;fontSize=20;" vertex="1" parent="1">
          <mxGeometry x="68.75" y="1749" width="102.5" height="30" as="geometry" />
        </mxCell>
        <mxCell id="JWRoyy8OLOyvuGsEvahi-101" value="&lt;font style=&quot;font-size: 20px;&quot;&gt;&lt;b style=&quot;font-size: 20px;&quot;&gt;User&lt;/b&gt;&lt;/font&gt;" style="text;html=1;strokeColor=none;fillColor=none;align=center;verticalAlign=middle;whiteSpace=wrap;rounded=0;fontSize=20;" vertex="1" parent="1">
          <mxGeometry x="-330.63" y="1530" width="101.25" height="40" as="geometry" />
        </mxCell>
        <mxCell id="JWRoyy8OLOyvuGsEvahi-102" value="" style="group" vertex="1" connectable="0" parent="1">
          <mxGeometry x="275.0000000000001" y="1640" width="90" height="89" as="geometry" />
        </mxCell>
        <mxCell id="JWRoyy8OLOyvuGsEvahi-70" value="&lt;font style=&quot;font-size: 16px;&quot;&gt;API calls&lt;/font&gt;" style="text;html=1;strokeColor=none;fillColor=none;align=center;verticalAlign=middle;whiteSpace=wrap;rounded=0;fontSize=20;" vertex="1" parent="JWRoyy8OLOyvuGsEvahi-102">
          <mxGeometry y="59" width="90" height="30" as="geometry" />
        </mxCell>
        <mxCell id="JWRoyy8OLOyvuGsEvahi-95" value="" style="image;html=1;image=img/lib/clip_art/computers/Software_128x128.png" vertex="1" parent="JWRoyy8OLOyvuGsEvahi-102">
          <mxGeometry x="15.499999999999886" width="59" height="59" as="geometry" />
        </mxCell>
        <mxCell id="JWRoyy8OLOyvuGsEvahi-103" value="" style="shape=flexArrow;endArrow=classic;html=1;rounded=0;entryX=0;entryY=0.25;entryDx=0;entryDy=0;exitX=1;exitY=0.25;exitDx=0;exitDy=0;fillColor=#e1d5e7;strokeColor=#9673a6;sketch=1;curveFitting=1;jiggle=2;" edge="1" parent="1" source="JWRoyy8OLOyvuGsEvahi-104" target="5UCkynYuIxP1ABJnEuy5-1">
          <mxGeometry width="50" height="50" relative="1" as="geometry">
            <mxPoint x="-100" y="1680" as="sourcePoint" />
            <mxPoint x="310" y="1530" as="targetPoint" />
          </mxGeometry>
        </mxCell>
        <mxCell id="JWRoyy8OLOyvuGsEvahi-105" value="" style="shape=flexArrow;endArrow=classic;html=1;rounded=0;entryX=0;entryY=0.75;entryDx=0;entryDy=0;exitX=1;exitY=0.75;exitDx=0;exitDy=0;fillColor=#e1d5e7;strokeColor=#9673a6;sketch=1;curveFitting=1;jiggle=2;" edge="1" parent="1" source="JWRoyy8OLOyvuGsEvahi-104" target="5UCkynYuIxP1ABJnEuy5-1">
          <mxGeometry width="50" height="50" relative="1" as="geometry">
            <mxPoint x="-130" y="1729" as="sourcePoint" />
            <mxPoint x="30" y="1729" as="targetPoint" />
          </mxGeometry>
        </mxCell>
        <mxCell id="JWRoyy8OLOyvuGsEvahi-106" value="" style="shape=image;verticalLabelPosition=bottom;labelBackgroundColor=default;verticalAlign=top;aspect=fixed;imageAspect=0;image=data:image/png,iVBORw0KGgoAAAANSUhEUgAAAggAAAHECAYAAABcPtIxAAAAAXNSR0IArs4c6QAAIABJREFUeF7sfQd4XMX1/bnz3ltJllyw6c1Fu5LBCRBqAuSHIZBAGknAJAFs78rGtNBL6IgeQq8Bx9aubSAEk0IKhJBgCPyppsfY0q5cqAGMjYtkad97c//fWxsCxMar1czbt9LM9/GlMHPunXPfas/Ou3MvwQzDQIkMNDOLd15Adcdg2DGsriLU7Q/yj2PmvQFUlQj7+WUShGfY41mxQc79HR3IV/lgWQV3xAjkm4mkIjsGxjCgnIHgM7J4MWKiG063BaqtRSy/2j2cBI0H46sAhCKj3QCekqA7BNbMyaOuu3YFvK13Q5f5jChiuB/CUD/cs9lyLxgI/uC1L+zatsqvrvXgbQui8wg8theQpSxdAeDvkmmGA38hi5jrW1iaGUkflQJm1hgGVDIwpZ0H+4zNSOYdydYIFnIiIA4GeLBKOxvHoseY+Gpi+YYn5OquF6rfnn0E+RtfZ2YYBtYyYASCeRKKYmB8jjd3fK+BBG0iwc0Adi1qYRiTGEvBPIuJHhICnrS8RZkR1UtAxGGYNzb6OQPMNGlR1/Ys7VFSwhaEbzBjEgibRoYZwgsMulz4vFQ4dnbaKHovMr4ZRyLLgBEIkQ1NNBxrausaBbJ3l5D/R6CfABgWDc826EUegh6ALx8SQizPk/XirFF404iFiEet4txjGt/etV2MnV2llJtA4Ftg+iGAWLS3Qh+SwG8h8TjYm9vSUL0w2v4a78rJgBEI5WQ/wraTi3hLct0jQGIfAN8GuC7C7m7ItaUMfpiY5rOgeX6H9cisnamjAvdhXI4IA1Pe4QFuR/4ghhhDoB0APhiI0ElB8TytBvhBZjzlxZz77hpB7xa/1MzsLwwYgdBfIl3kPpubWSw+yjuVUEig+jaA2iKXRnwa5wA8AWF9JKV724xEdXvEHTbuRYiBiVmuF9I7EcRDWNA+xGiIkHslu8LAGgL9hYie3f4ucUNzs0n6LZnMPrjQCIQ+GNRSt9TU6u7LAmeBsS8IQ0vFifg6H4ynAX5Tkrh3RsL+U8T9Ne6VkYFk1vseAT8B8/YgfA2AVUZ3NJqmZQA/SQLXtNQ7T2o0ZKAriAEjECooWNpcZaZUzp0GiP0ArtdmJ1rAPkDvgHgJS777vZyTfujbFFwVM6OfMzBlLjvuEJkC5HgwDwdo674rDD4fbGpnlo9nEs5kk7fTzz8I5haDeQAmL+jeybfELwHsH/0EKy3xCm46dAC0EiyvXu06LbPH0GotlgxopBlYm18QXEnkC8A8CFR4vdYff0TlmeVjgunslsbYK5EOmnFOKwP98eHXSmjFgAenBll3CkBX9uHXCSWFg1gcv31CTG0G2PyKKonCylnETM0AvZHzUwyeVjmOh+ApI3jtcF464Uw1n4MQ+I6gCSMQIhgU3S5NmcsD8oO94wi4tp/+QiqKYvb51Fi1c1+Vi2W3JMzrh6JIq5BJJ2W5qtvB0HzePYKIbqwQt8vhJjNwZmzFB3dM3X3rznI4YGyWjwEjEMrHffiWC7kG2BTsTQHh8vAdqECLjHdA4nKWYg5iWJwZSV0VuAvj8joGkou4GsAIeO4BxHQ+CEF+gRkbY4BxAciemo5jqTlN2BhZfeffG4HQd2K50Z1MaOVtLPJOBeHMjU42Ez7PwIuQnCaWj6xqrMrNJlOytpIekXHMVs3C7nqLnW+CgwTECFUCrRQiWV7rc+zGmY30dqW4bPzsHQNGIPSOv4pZHYgDIdyLCXRMxTgdSUfpTwQ5x5bOXVMbaWkkXTROfYaBKe/wpvkO92gCBT1DDjX0lM4AgX7tSesSIxJK57CSVhqBUEnRKtHX43K8eR7+Ncw8oUQIs+zTDDA8EnQXg15Ix61bDTnRZSDZlj9JCLErSz4aBDu6nlaSZzTTsqyzTT+HSopZab4agVAabxWzatw8rquL+TcBPLH/3OUOKTyMDwH+CyTNTI92Hg3JqjFTBAOpnHsAJE8A0XcroH9IETuK1JSghsgMb6B18qwtTenySEVGsTNGICgmNFJwzJTM+bcQeBKAIDnLDPUMSCLkJNMjWG1dkPmKaTmtnuLiEY965sNBsWGDryDibzIjDkAUv9rM7AEDXQyanolbJ5mkxR6wVmFTjUCosID1xN1U1r2WgRMIqOnJOjO3JAaC2w05At3YkrCnl4RgFvWKgVRbPkWgU5kKfRKMIO4VmxtfvLaPA25PJxyT9LxxuipyhhEIFRm2jTs9MeeeQRIXEWHQxmebGQoZcAGebTnOBdNG0CKFuAZqAwwk568ZIWznUgb/pJBnwP2y+mG5no8VUuKyGY3OdeVywNjVx4ARCPq4LRtyMpv/Kkm6DgJ7l82Jfm6YAE/6/vcEVv2/ltGbrerndGjZ/gnvc13nSm9fwfgzwyQgaiG5GFDGkwCfmW6IPVvMdDOnchgwAqFyYlWUp5Pm8VCOeeczcHpRC8wkrQwQ0d8I1lkr6zHf1E5QQ/W4+9gatCt2kJz/JSAOUYNqUHrDAAPX18Tsy381nJb3BsesjRYDRiBEKx698mZds5ljAXl9r4DULf4IzIuZ6H0ByGJgGYgBQatp2orAw/rIL0MmSYeRZb02PU65Yngwc9bPQLK9KyE9+pIlxO/6Qpnw4KSJQR+C+V0QlhGQLyb2EhAEbF6oCgkMKWaN/jl8ulPr3Dl1azIlmfWTHYoFIxBCoTkMI0xNC92d2Mf9AAXZ2+Ua8wF6AUAXg9uZ+JElbzqvPLY/ecU4NG7e+3UDqoY0EmMvIrEDuJBsZgH8ZQC7oHKPkvNg/F2Sf0tnvOqf5jShmKfhv3OCSogDc943GHQSwN+s2M6jDA+EV8H0GgguCF3Mcj57eLZTftQ6e8zmRXUSHctsD2/HzhbJg1gGLdplNUC7AtixZ8yqm02EtrzPR9zVGHsVQaMzMyqeASMQKj6EazdwVJYHOfBvIHBT6FtidIAwB8CLYHreqbMeVfkrYuwctuu38faWAl9noIqYhzPTQUTYKvS99tYgoVUy3yJ9/8FZo2tMEmMRfI5fzCMd1/02E50ERmMRSyI1hRnvEvEjTLSEgG5m/L+OvP3U7DFU1GlBMZspNGDbxB9LkvdaV0Y6aN8etKsOdTC4xYVz2t0JWhmqYWNMCwNGIGihNXzQVLv3XZb8Jwq3f70L4CkGT/eZ585qiC0ASO8vB2ZqerNzK+Sr9mJfbkZC7Mngw6JzzFpU7D8MeAPbV6Qb8Jx2zopyKZqTUm35vUB0PlBIuB0WTS/X4xXRR2D5B0g8Q5b4AF73sy2NA97VXzOAaXxbfrRFtDsRJcG0L8DBa7twBkFC0qHpBvsv4Rg0VnQyYASCTnbDwi50afReAzAmLJPEWA1QkoTfOj1e9e+w7H7ezoTWzm0IzmiS/gCyrTMA7FcuX3poNxBSr0jJN1StWnq/aaX7WfZOe5Nrlne5hxMoSLbduVLyDQj4l/T8azlmdXLMXjBzu/I1NpqY7R7DwA4WizQIdT18PnszfV46bn9ZvxjqjYtmbTEMGIFQDEsRn5Ns939OUv4iLDeZ+Rn4PKXjtdjrs4+ITlfDSQt5OEl3U1/SN0C4FEBVWJz0ws57DLwC2z7UtJJey2KhJbPnP0DgQBhs0Qtuw1qaJ8IFAvwoC2fp9FG0JCzDG7MT5G7ULsjvSI64AxzetWdmnJ1pcK7ZmH/m30ebASMQoh2forxLZd01YVWOY+ZT813OzHt2iu51ppOyXLWiBnVijX8AQV4BUKIoIss3Kbjhsdyy7DH9vQFOctHqLckrnEhtEvUyyQS0Meh8v8aaM3gNVt+SoO7yPUJfbPnIV3mT6ho5kSFvCMVHwpp03BkQii1jRBsDRiBoozYc4FTWux3g47VbY3hs0Y9HvGH9qbnIGwnafSrSwOQ29yCf+HqAggQ3p8hl5ZjWTQLN9nL7uqm7U5Df0W/GlLns5Id4pxLjsoif/ASVMtuY6MxM3PlbJQUoSPYdtbX/PSa+L4zOlgy6LZOwf1ZJHBlfP8uAEQgV/ERMaefBrvQWANhS5zaIaLkv/ROXvP3U7Mf237+o64o6/SkVOzXf3ZttngoSQ4k5mjcgCD4xHhFd3cltv1T7QTNRUfUjSuWk3OuamcVb/+7YTFZXZZhwEDi40hq9wYR3wbxMgI5pSThPR8/D4jwKRMLwbfLjBInbQ0js/U8edqO50VBcbKI4ywiEKEalSJ+SWfcKAk6D3mZMS0lyc61wpkX5CLVIygrTxi/I725bdBMzb0VEI3uyNqy5DDzGPi6w8NGrfbVU8wnzuG6N8HaCjcsBBNfyojeYF4PoHUl88ox4LKjvUfEjeAXXAXcyg5oBbKpxQ2tAuC4ddy7UaMNAa2TACASN5OqEHp/jzS3pPUKEnTTa6QDzNH+Ac9nMbSm4mtdnxiHZbNXmPPJAQTiWIXcm0PYR3NwCEKZbwp7V13ITJi/kLaSUR7OUk0DYIWrcM/gNgnhFAtMGwXq4r4jjj3meMJ+HCcu9kIgm66yXwMyvEjkHphP0QdRibPzZOANGIGyco0jOSGbd04lxPigoS6xlMBOekswnzUzEXtJiIQKgk+atGMqx2kOY+DAw7QewLj5L3W0nmO8i6VzSMpreKRUkSuuaFnRszaLqYgg+GoxIJbIxsByExwXT/ZTveGj6mMHLosSdSl9Sr+d3hUO3APiaxmukH0rJV8xojIWTHKmSIINl2qJW4jMQXF2qy3m/B/B9Xf4zeJEkceLMuP2QLhtRwm1q6xrFwv46mI8j0O4MtqPkH8C/ZcYvMg2xl6PlV8+8mbygeyffovMA+nHPVmqf7QOYy0R3MHtPzEhUt2u3GAEDE3LeIYJxG4F1vmr70+q4/SNTXjwCAe+hC+YEoYeERWH6pJz3Awn+JRh6ru8FpZOBX6QbnODdcL8aTe353dkXCRCnI5hN/zRI3JOOW7dWYlCasvkTGXTkuqqIUdpCd1CgEyyzmcbY81FyLAxfUm3uBQDOAekqzcxZQJyVTtgPhLEfY0MdA0YgqOMyNKSmrHsdgJP1dTrkNx3p7Dq1kZaGtqkIGQoy6xfnsKeAPJghL46QawDR+yzlQ5mGWDJSfm3EmVTWawH4O1jbgTAyQzIuJ7L/OiKO5/r6jZENkT6llTd1hfsiQNtpCoxHwM0tCSeodGpGBTFgBEIFBStw9ejXO7ZynNhNAMZpct33kd9jZqK2z+YdFMvb+P9wrbPa25OBm8AIuklGZeRB9Jfh9da4qH+pjbuPrbpdvNkgBOIgvJ4AG4/Ua+TjlFX+8ueL7aC4ccjKnbEuH+G5tZ1TdQy+z7Kck/tasq0OpqKEaQRClKJRhC+pnH8ywFeBWU9yF2NZusGpnKY4RXDWqynMlFyMKrjeSUS4WmMyV0/dZBAe4m57UmYM/aeni8OYP/k13kLW+NOZ+duR4Y0KbYjPWV1l3zJ7W3SZfgH/fRKSWXcZra1gqWFQBxGd2xK3gqRIMyqEASMQKiRQgZvB0feSdu88rK02p2Pw6rw9aPYYKqonvQ4HooyZyrlBR8FLwPh6VPITCEE3SFy4Km8/prJ9cG/iMG4exwZUe18nicsJ+GpvsBSuDcogP8WWfXFmFD2hELfPQH1/AQ8cZnkrtIk5woXD6+0ro37q1WcCqmAjRiAoIDEsiKYlPIrzXtCUSdfrhZfSCWfXsPZTkXaCE4Wcdz2BvgfikWCI8u+D3gbRpV6duHvWlhQkmJZtrH0t4x8J5osY2LZsjnxsmCBZ8hII+lOm3j7NnBh8cURSWTd4tbiLlrgR/dayrXOnjaBFWvANqHIGjEBQTqk+wKYF3UewZU0DeKAeK/aYdIJe14Pdt1Cb2t192cdpIByq771tjzjrYsJFfod9+6ydyyMSxr/CtVatd0JwykKMmh55r2eyD8YDTLglk3Ae02Oib6GOf52/ZDuF1vHqB9FKZkzOJOzZ6sENog4GjEDQwaoGzOZmFouP8pMEnq4BHmC8ItzOA/pyYRj1vDEls/4tBP4/IBpJjIFIGNBt33B7yK+Jxs17v25g1SanMRfabEdhvMagf2US1kkABXkHZhTBwKR5PNR3vDm6KrQyeFIm7qTNSU4RwYjAFCMQIhCEYlwISis78C9g5pOKmd/TOQyaEFth3dvfugj2lKfPz19XtOpAAh/FoKO1vb/tiaOMm0naV4dVeXFCa+c2luWcBcYpPXFT01wm8F0Munt13P6HKc7TM5aDrpruQPdICMr0bGWRswk3g+3LTenlIvkq8zQjEMocgGLNN2XdrzHjfhC2LnZNsfOI0Amf925pjL1S7Boz77MMHJXt3LYKzs8YGA+oj1HP+ab7wda16QZ6tudri18xvq1zLwvOWUQ4rPhVemYGHRcJmJVn95a7EwPe0mOl76M2LeSdWXpPQ8trInrbsq3Dp42kZ/o+k5W/QyMQKiSGTW3ugUx4RIu7zL9y2LmovxZGUsVp0NfBrxq0J7F3dtm7ExJ8ZjxPLG9ON1T9RtUeP42TzHk/IeaTQdiz3G2ag+6XkP411oCqZ6ZvR322f4KOOH4eM5VdtRm46jIQHavDHjEOamlw/qED22CqZcAIBLV8akELjrFrcvkfWhCaknto3PC49Xtz/aj34QtiNTi3Zisfzu0Agvv/mgrPFOFrIBIkv0GWdU263vpVESuKnpLM5k8A40wStH2ZxUGQiPiQRe7xK+I175pXCkWHcIMTC9epF/k/gs9a/t4w02EdCesBE6vex0o3ghEIuhlWgD8+t2pzC1U3E2tpcNNJ0j+8pbG6XzRlUhCOoiCmvMMD8qu9Ewm4WF+N+6JcCRL0VjLzxZmGQgXOXo9kW/4UEtQMxuAy51x0MHB5rNa+eerW1NnrjRmATxhoynmHMPPvAPW3UZj5Xl90nzIrPvB9Q3m0GTACIdrxKXiXbO0eLYR4TUvvBeapruc237Vj7bsVQEXFuZhctHpL8qpyQKGtcTk/b5IhTuqIiztL/eUWnI7U5uSxBBlUwytn/YdA9HRall1vSvfq+UgELbmlVdVM4GNUWyCGJ1l+OdNYtUA1tsFTy0A5/2Cp3UkfRpvc1r2DT0JTfQI+IZ2IKT1+7sOhKG1rQXGlrPuiIBFncF1pIIpWST6WY87MzEjq6glichFXC98fz8xTe7JO+dxCp1HOpRPOV8xVOeXsfgYwlc0fD1Dwqkz5sFjuOK2har5yYAOolAEjEJTSqQGMmSa1uXtIoSUbvYvBJ2YSsRYNnhvITzHQtIAHsuOdC0njAI6XlRwhTnBqxIxij+WD1yVuhztR15dF8VxwjmHdL3xxZctoWlX8OjOzFAaS2XwTgW4DUF3K+i9aw8LeMzMKc43IU82sWjwjENTyqRxtCrPTnfXOFoTLVYMz8/Ms6LQZcef/qcY2eP/LwElZrlol/G+QlJcAtHtZOSKcRZ5958a+aE94n+vWrJTHgeU1Zfb3eQJd/C5bjz6UoKCvghmaGShUC5V8g45nlYBz7RX2dabuiuYg9hLeCIReEqh7eaF87QD3aQIpbzdMoNttYZ03tZ6CBi1mhMIA08QF3t7CxmVg7FPOFsgMXO13dl0/a+f1J4sF190Y1acTcE4o1KzfiBs0WZI+zp8x2gjZMOMwpZ0Hu9K9CqDjNdh92eu09y1XWXAN++mTkEYgRDysR2V5UAxecK9b/XU5wuXpuHNhxCnok+6lsvldGTgOoMP1tdjdKHUSRL/2uq0rZ42hNz49e/y8NdtbVc65xDylXAmJDCwn8O8k4Y4Z8dgLG92NmaCcgVTODYTsBcqBAS+PlcPuTgxbqQHbQCpiwAgERUTqglknEHT8wpcEXNaScJp1+W5wv5iByVneVsL9FjP9AoRNy8RXF0D3k2Vd3jKKWgMfJszvarBscWEgXnS8fy5yn0tZ8nm2cB6aliBTFbFI0lRPS7W6l0AUBILyWyt52IPvTpARCKqDphDPCASFZOqAGjd32eC6wQM/Uo7NvJhZnJtptO9Vjm0Ai2YguB0gO9fsZMWcx8v4ZdxVKDZk283SdYmJgtoNh5TTH1/yfmsGOK/N3o7WFE2mmaicgVS791NIGbxmGK4a3AgE1YyqxzMCQT2nShFTWXc/BGVkVQ/GwwT7hJYGWqga2uD1kAFmamrt3IrtqiyYg3oJ4Q+GC8K/C4YZXwLBCd+JQqWITvLyiZbGAe+aDPeyROAzRifluuI+W7cR8E3V3pCwv95ST0+qxjV46hgwAkEdl1qQmrLuFQycpx6c0umE3aQe1yCWykBwFVJa7jME2rFUjApfN598e6+N3ayo8D1WnPuprNcCcEq148S4rKXBuUg1rsFTx4ARCOq41IKUyrnPgbGHenAjENRz2nvEVJY3A9wrAfoJgPIWVer9dopFWA1B92GAdU56K/qg2EVmXjgM6BIIYDybbnC+Gs4ujJVSGDACoRTWQlyTzLpBMqH6ODGn0w0xc4IQYiyLNRVcL/OkTIH4bGbeqth1lTiPiN5lltc4wmkx122jGcFUNt8CkPITBAAynXDU386KJo0V6ZX6L56KpCG6TqeyblB3XvXoZvCvMonYaaqBDZ4aBoKiSh3k/1gygnr4I9WgRguFQIsg0VwrrN/eYoofRSs4n/ImmXNvBON4AmKqnUwnHPMdpJpUhXgmOArJ1AGlRyDQ2wx5kSmxrCNiCjGZKdXuHwHGFQDXK0SOABS1s/QvSDfEfktEOkRwBPbYN1xI5vLHQNIlRFB+mmUEQrSfESMQoh0faBEIhNd8xrEzE87TEd++cQ9AU877ITN+uU4kVPpnlgFuJxJnt8TtP5gAR5+BSTl3H8m4A8CXVHtrBIJqRtXiVfofG7VsRAxt7By2R27rBaVm1Q7CE+Cuw9KJgSYhTC2z2tCa2t0DpeQbCTRGm5FQgPl1YjqlpcH5RyjmjJFeMzD5tdVb+DVV94Oxb6/BPgcwPG5bzURSNa7BU8OAEQhqeNSCklzEI8jzFmkAf2R43D7YfDA1MKsRckI2/xULdAOAoDZG5Q3CE4L5lOmJ2EuV53z/9XjcfWzV7eL9DYQDVbPg5b3hs8bUfKbMt2obBq90BoxAKJ077SsntHYdYgnrQdWGGPh7JuF8SzWuwdPPwFHZzm1jiF2q4166Tu+ZOWOTc6Epm6yTZX3Yyaz7sI5iSWzhm5lRziP6PDfIvWHACITesKd5bbLVPZ0ErlNtxggE1YyGi5dcxEPg5c8iCA0FtHTsRVzVvUZcc89OtFwHusHUz4AugQDmU9INsZv178BYKIUBIxBKYS2kNcH1ImKcotqcEQiqGQ0fb23VRe8EAjUDXB2+B8VYpC4CX9KNlbebrn3F8BXdOboEAgHXtyScM6K78/7tmREIEY5/KuvOBhB01FM6jEBQSmfZwMa/wrX2AHcKQEG3vaFlc2S9hmkZIC/3OpdNnbXzlh3R8s1401MGdAkEgH6bTthB1VAzIsiAEQgRDMrHLqWy7lMAvqbaRSMQVDNaPrygoNJqkseCZfC6YYvyefIZy+8x81VwnDszI6krIj4ZN3rBgC6BIBlPzmhwvt4L18xSjQwYgaCR3N5CJ9vyi4hoRG9xPreeifBgS9z5rmJcA1cmBqbMZccd4h4LLpwklFskvAcSlzv14s6pROqv6JaJ4/5uNpXz/grmoAW42u8Molw6bif6O79R3b/aYEd1lxXqVzLrLiNgE8XuuwDNTifsoxTjGrgyMtDMLJbk/CYG/1LDM1PUzhhYTqCzV79kpWcfQX5Ri8ykimAglc3fC6bDQLAVO/xhOuFsqhjTwCliwAgERUTqgEll3RUABinFJnQxaEYmbh+nFNeAlZ+BoDRzzm8DOF4eZ4Jfg1YDTOnk8tCv0Woqm/81QOMBVCk2szKdcAYrxjRwihgwAkERkTpgtAgEoBPAnemEc7oOnw1m+RhoyrpXcHDrhVBbFi8YHUS4qSXhnF8W+8aoNgZSbfmbmOgYAmoUGzECQTGhKuGMQFDJpmIsLQKBsRrATekGJ3hfbUYfYSCZdS8mIOjOWe5fYysgxPXpeuvSPkKt2QaAVLt7JSROAlCnmBAjEBQTqhLOCASVbCrG0iIQgFVB8aWWeucSxe4auDIxkGrLn8xEFxEwrEwufN7sUiK+tCUeuyUi/hg3eslAsq37UiJxKoCBvYT6/HIjEBQTqhLOCASVbCrG0iMQaCUEXWd+4SkOVjngmCmZyx9OZF0L5u3L4cIGbRK9wYwzM3HrfpOTEKnIlORMqrX7EggRnFAZgVASg5W5yAiECMdNn0Dg69L1jjkCjnDsN+Za0EBn4G74GkvvWgB7bWx+Wf4943m2cUbHXPspc6uhLBFQZrQp6zYzEOQtGYGgjNXoAxmBEOEY6REIWMUQ12USlnnFEOHYf5FrzEyTWtHAtn8lmH8U6W0w/kC2fe70kWgjc7sh0qH6IudSWTf4e2FOECo2gqU5bgRCabyFskqHQCBgtYS8NZOoOjeUTRgjyhmY0sqbusIPOjoerxxcAyAT3xHznQunNtJSDfAGMgQGUjn3akicqOGGjMlBCCF+pZowAqFU5kJYp0MggNDJjKmZhBP8GjCjwhgYx2zVZb1fgHBmRbnOuHb1y/Y55lVDRUXtE2dTOfcmZphrjpUZvpK9NgKhZOr0L9QiEIAuIsq0xO2K+PWpn+XKspDKutevO+qtLMfXenuDqb9RiWEDUjnvTjBPNIWSKjN+pXptBEKpzIWwLpV1lwMYotiUS6D7WhL20YpxDZxmBpLZ/K0EOlGzGc3wdGs6YQf36c2oIAaSbfnfEOhw9aWWaVk6YUflem4FRSQcV41ACIfnkqykct4iMGto1kQPtsRt06yppKiUZ1Gqzb0cVEgSG1AeD5RZ7WTgxoyptqiM0DCAUln3QQAHK2/WBG5PJ2JlKg0eBnOVbcMIhAjHrymbf5ZBe6p20bR7Vs2oXrxkNt9EEEFS4jZ6LYWEzniHiS/MJGItIVk0ZnrJgK52zyA8nY47e/fSPbNcEwNGIGgiVgXGdPalAAAgAElEQVRsKuv+GYDyX/pGIKiITjgYydb8HiTodgC7h2MxNCtzWfIJmcbY86FZNIZKZkCfQKAH0nH7ByU7ZhZqZcAIBK309g481ZafDqKm3qH872ojEFQzqgdvQitvY1nezWBEu9ZBqdtn/CFP7sl3Jwa8VSqEWRcOA7oEAoN/nUnEpoSzC2OlpwwYgdBTxkKcn8q6FwFQXtDICIQQg1iiqaDWQZ7cy4gozLbccp27okS3e7yMie6I+ZapkdBj5sJdoEsggHBBOu5cEe5ujLViGTACoVimyjAv2eqNJ8EzVZs2AkE1o2rxftq6ctMqUXMurS1tG9bIA3h1nbGdAMTCMkzA9Wvkmqt+0zjIFFIKi/Qe2tElEJjpqEyDfU8P3THTQ2LACISQiC7FTFOruy8LPFHK2i9aYwSCakbV4R2V/XCQg0GnEeMC9VfKNuinD+a5vqBzbQDMuGpdzoOlbmcbRiLAk8DlLuwb7k7QyjBsGhs9Y0CXQCBg75aE83TPvDGzw2LACISwmC7BzoTWzm0s4Sh/P2sEQgnBCGFJM7O9pN0/CpKvB2FoCCYDE8zgrCBxakvcfij4P5py3iEA38iMhPprbRvYFWMZCTpt+3rrnmYiL6S9GzNFMpDMeg8T+JtFTi96Gtv2VpmR9J+iF5iJoTJgBEKodPfM2Fhme2TOc3u2qqjZj5Fvf79lNK0qaraZFAoDE7M8RpD3OzAaQzG41sgHRDTxY3Hwsd1AJDDzDACbhejLAkH2uOlx+neINo2pjTBwVJYHxdj7Ewj7qSZrddy2ZxP5qnENnhoGjEBQw6M2lFTWZQ3gc1nK8ZnGqgUasA1kCQxMYXbyWe9JIiive7FBdxgeCAemE87j65uTyrr7gfGPEF91BOcZz692s/vOHjMmyIkwIwIMpOZ178gxmkmg3VS7k0445jtINakK8UxwFJKpA0qHQGBwG4FOTiech3X4bDB7zkAq5z4Hxh49X1n6Ch/2rjMT9NIXIUzI5r9igV4s3UopK3luOhELlYtSvOwvaya0dh1iC+tGBhpU79kIBNWMqsUzAkEtn8rRdAgEAO8x+NJMIhYU4DGjzAwks+4cAPsREN7n0cPY9A7rPzn4PB3J+WvGkm0HPoY1GOB/pROxsWEZNHY2zECqNf8zFnQhAZur5skIBNWMqsUL7w+SWr/7DZomgdAF4LZ0wqmslsF9LOrNzGJJu3s9M00hoCak7flMdHys3spMJSoqv2XcvHmxAXYiKdZWdAzlZgMDa4gwdXi9fXoz0cf1GUKiyJj5NAPrOoieoKGTI4xAiPazZgRCtOODVNYNvsyr1LtJ6XTCVl6lUb2ffRMxEAeLFvqHkJQ3Eag+pF3mAZrqSOuSqY3Uo5oDhcJNwm0m0DHh1UigdgZOGxG3/mpEQkhPyHrMpLJeC8ApDR50pRNOWMJYg/t9H9IIhIjHuCnrPsvQkbhmBEI5Qz8x2z1GQNwWvFoIyQ8fRH/3pH/GrIaq+aXYHN/WvYMtrOvAhetuoZwkAHhcwj5xRoLmleKzWdN7BjQKhKfTCdOoqfcR0odgBII+bpUgJ7P5Wwl0ohKwz4AYgaCe0+IQJ7R3NVjSvgbg7xe3ovezGHiOCafPiDv/rzdoExe4+1gC13OIty0Y+LMU/pkz66vbeuO7WVsaA9oEAuGmdNw5tTSvzKowGDACIQyWe2Ej2ZofT4LUl1smzmTqnSYQ6bhG2Ysd9+2l49vXbG9L6zKAjgYQVs+DV0jgzJZ65x8q2G1qdw9kiWsB7KwCb6MYBAnQLMC6MB2nNzc630xQxwAzJdv9FmJOqgNdh8R0ZLrB/o1yXAOojAEjEJRRqQdo0jyOy5iXVY3OjN9Zrj1l+hhaphrb4K2fgRPmcd2amHsMQEEDroGh8MTcCqJTVF9pTWXdbwG4EcDoUPYBrGTwxQPyzrTbx9DqkGz2ezMT5vMwYft3Evgw1WQQ2/UtDbRQNa7BU8eAEQjquNSCVKhiBm+FBvCnfcmnzmyMPacB20B+jgFmpomLsIflub8B0agwCCKidyX7p4yIx36nOsmvcAMj5/+IiW8mxlZh7AegdrA8avg9zvPNzeZmQxicp9rye4EoEIJfVW0vD3uw6b2hmlW1eEYgqOVTOZo2gUD0JrM8P5OIzVLutAH8HwbG53hzm73HAOwQEj3dYFzOjn1tZiQFN2GUj+QiribXOzNo2avnps16XZ7vkT12VpzeV74hA/g/DDTlvAlS8pVE2EY1PUYgqGZUPZ4RCOo5VYqoTSAAPktcnml0mpU6bMD+lwFmSuXcNoDiIdLziNdp/3DWztSh0+b4V7jWrvX+CMaBOu18GpvB7Zm4kzD5M/oZT2bdZgoEIKu/tWIEgv749daCEQi9ZVDz+kAgOPCWkY5rZYTL03HnQs1b6PfwqZz7ezB+GCIRK1ri9iYUUgJq8Pok1e4vI+YhYe2RgD+2JJwwOQ1ra5Gyk8q5lyFoPa5+uHms3PTuxDDT3ls9t8oQjUBQRqUeoClzeYA72HtQy315IxD0BO1TqOu6IgbxC2t8wLa9va7XChvaROF1g+e9EWb3Rxb0nUy9HSa3YcUwMnY0CoQ5zgr7u1N3p87IbNY48j8MGIEQ8Ydi3DyO1dreeSRwsWpXCbh6+7h9QTORpxrb4AGF9s1B3gFh01D4YF5sSeeAaaNpUSj2Pmdk8gIe6Qv3URCNCMn+Uhmzx84Ybooo6eC7mdlekvWuAOFs5fgSF6/22n5hunYqZ1YpoBEISulUDxZkiy/Oet8gwt9VoxPRvS5ZP59VT8EvPzMUMpCc3/1l2OI+CusaIOMdWHTs8FHW38ol+IIvlIXZ7oMtsu8AWHlS2/rCw8ACePKIzA5VrykMn4ECMGkhD5fSvxrMP1ZNiM/+QaPuqXrU3EZRzaxaPCMQ1PKpBW1yW/cOPonXVYMz4VXycFp6tPOoauz+jHf06x1bOU7sZjAOBcHRzgWjA4zrhNd50/Qxg8ta12LSvBVDOTbgZIDOYHBdCHsPGk49wI59UmYk/Ue7vX5kIJVzDwDzjQB9WfW2LZY7Tiux5LdqXwzehhkwAqECng5dAgHBF4vgE9Px2IwKoKEiXBzHbNW2uycQi/MB3kK300FfZALfR+ycF5WiM01tPArCv4LBR4BDqRb5HjNf0ZFwbp9N5OvmvL/gp3LeRDAH/UJqVe/ZCATVjOrBMwJBD69KUZOLeDT53jw9f2z5hHQi9iulDvdjsFTWOxSQ1wCUCImGhwH79HSClJ8w9cb/VLZ7R0BcDyCouBjC4Cwgzkon7AdCMNYvTKSy+eOBQotv1UOybY/JjKQFqoENnloGjEBQy6cWtOT8NSPILmRrayiyYwSCqqA1tfO+LL1bAOyiCnMjOM8w8/GZhtjLIdnrkZlkW34XosIXzNd6tLDEyQS8BIGTW+qdJ0uEMMs+xYBGgfA6e953MjvULDaER5sBIxCiHZ+Cd5Pe5KFyjX8liI9V7i7jgiE19vU3bEdrlGP3I8CmBR1bs6i6GIIn6Sgq83kqGfwGWJw2ImH9UXUZZVVhW5tg6/8AJG8g0PaqcDeIQ0HxL57mec4ld+1I72q314cNFK5XD/JOB+Ey1dtk5jss1znf9IFRzax6PCMQ1HOqHHHsnDn2yG2//gOAZysHZ/qDEN7Z0+PVOeXY/QRw3H1sDdzd/w77fD8QQlIiURcY6dVx66Sov3Mv5GRk3duIKOgGWBXCI+GyRYd1zLUenH2EyUcole9ke1eCpHUNgENLxdjQOt+X49Y0xv4Q9WdX9b4rEc8IhAqJWlObeyATHtHg7gdS4qczGp1/asDu+5BBE6Z2d1fBNDfEzb6YTji7hWiv16ZSWfdFAF/pNVCRAJJ49xn1zoumHHORhH1uWlNb14FMVtCKWXkND2Ic1NKgpvV4abszq4plwAiEYpkq8zyNAgEE/9CWRPWfyrzFijQ/oZW3EZb3fHgdDbEgnXA05KLopz+VdeeH1h6a6R2frT1nNtLb+nfW9yw0Zbu+z7C0JHwagVA5z4sRCBUSq1TW3Q/AXwAov1tOoENbErYRCD18FoJXC3Vf8W8E+Gc9XFridFrYJa29ftNIS0sEKOuyVJY3A/xnAA6l3bUE3zoy7pwS1RyNsgZjI8abst73GaxBINAqYfF3p49y/hXl/Rvf1jJgBEKFPAnJ1u7RZInbwDhAvct0zOq8NXP2GMqrx+67iOvuiWdC2uEqlnJKprHq3pDsaTGTbO3+CQnxax1Cd70OEydNnY+ehfKQbLZqCxo5gZin9mxlEbMJ/yBh/6xlFLUWMdtMKTMDRiCUOQDFmm9awAPZkqcB8pJi1xQ/j2aTb53aMpreKX5N/56ZbO3+AQlxD4CaUJhgXOvU2RdP3bqym9tMeYcHuB3upUGlxVB4A9Yw0ZGZuP3HkOxVvJmmN3hr2e3dTMBhqjfDjIuEtG9sGU2rVGMbPPUMGIGgnlNNiExNbe5EJkqrN0BLBVn7T4/Tv9Vj9z3EydnObT22f0dEe4RxCsfgXxOc89MJ+qAvsBm8aiC4VzDomBD2www8b8M+bFqC3grBXsWbmJTjL8mgyRgwTPVmmDmVaYiFdeqm2v1+h2cEQgWFPNWanwhBmj5cvFs6EQsyzc3YCAOpnHsjM6ZQKKcH9GeyrLP62pFs04KuRrYK1+i+p/uBY2ANEaam486pum31BfxUNr8rQC9o2YvkZLrRlHbXwq0GUCMQNJCqC7Ip6x3B4Ol63t8agVBM3FJt7gUgnAlgcDHzezWHCl02zx5eb/2uXB0ae+X/FyxunsP2ku384Aj7l2AOoYgSfQTQtem4dYWuPfUV3FSWdwU8HQJhFYMmZRK2+noufYX8iO3DCISIBeSL3JmYy+9GTNcT8H/q3ebT6+DcfkuCutVj9w3EZM49mBjBr94vhbAjCZbX1lHsor4ak5OyXLWa85eCRCC4RAicBi2hz0onnIdDsFWRJtbGxDsJVHjOVY/HAT7dnFSqplUfnhEI+rhVjhyUP80P9i4k4BzV4Mz8quWu2b/c7YJV70sV3rh5XFcX868K60ojEWW2r7cmBf4/Bojt2jFUdOc3gyOGMcthFmgYCxpGAkOJeRMpxUASPAjAQDAGMXgQgQYAqAZjgPK20wwXhE4AXQzuJNBKEFYCWMWSg/++ioiWM2MZSf7QB39IJD6EKz+UVbEP3qzHsrGADPb3Rrs/nZmDSovaBxPd4tdZ587akjq0G6tAA5Pm8VAZ8x7XIYIZuBK2fVlmJHVVIDX90mUjECos7MlW9zwS0HJMaln2ltNG0XsVRol2d5NzFlXTttuehuAPnBkVzwBBnFsLcUNfPZnpTYAmL+QtfN/7T28wNrSWJc7PNDrmM6SDXE2YRiBoIlYXbDLr/pzWflEpP5KlKnublu3771XH5mYW7cehhpd1DhJkDXTsqlqGV83Eu7GkZiL1Wd26nhOD+0UM0FKQvISYXiBwl+vJDpuqVgenH6teRWd/7uEwobVzG0s46m97BI20GOdnEs7V5tmsHAaMQKicWBU8TWa98SBcTcxbaXD94L78fnbKXHbyNR3DpOVsbtliUynlJoL+WyxMkGUzeDspeUciNAJUD2BzDTwbyOgw8D7A7QSRY6JWMC8B/E+OwIktlvBWAuIDyd4Hg0XN0r588pBs7/o2SeuvysPDeAckf55OVN2lHNsAamPACARt1OoBTrZzgnzvRhC+rdoCA3/PJJxvqcYNE2/SvBVDfadme5DYjqTciulThYyYaoh4BIgaGFxPoG11nMSEuV9jSzsDDOBdBnJgzpGwFrL0g9OGj0e3YPGejFmLagSW/Go4LdfukUYDqZz7CBgHqjbBjL96wj/1LtM1VjW1WvGMQNBKr3rwsXPYHrWdfwszH6ccneGmG5yYclzFgONf4drqQUi4bn5HskQcjNqPTTDTMBCPINBwZt4mnFoFijdo4CqJgW4QvQvmhQxaRMQffuw8Mdb4khfCwrzO7o9aZ4/Z/NPCIpJ7TGXdoNy6o9o5Jrqjo976mWnxrJpZvXhGIOjlVwt6MuvdSuATdYCnE05knokjX/1oE6eqdlciubcgq/ETEQBUEfFWDNoGa1+1VOngwmAaBnrJQB7g9wB6i4F3BP6bvc/ECyTjuapa+8WpW0en+VYq6wYnJsoHg27LJOyQmpopd7/fAkbmy6DfRqCEjady7vlgOhsoXGtTOnzfO2Dm6Jo5SkE3AhacigzfyttLCBwCwq4Agut5YHAVFcq9UpAHoL8wUZibNrb6OwMrgKB0duHE4eOch06wfJFJ/GNE3H4y7OJYE1vdbwiBf6gODCO4/iqvziSqzA0G1eRqxjMCQTPBOuAnLnD3ERZuBbCLanwm/DMTd5S/g/zYzymv81au43+HweMEMIJBApDERANIYhDW5gwov6GhmidVeMHPNfMhVMVmxeNIMNYENSQA7gAEM1gS0SIJ+XsB56F0nN7Utctkzp1DjLEa8F/ygRNnJpynNWAbSI0MmL9NGsnVBR1cx1tylPd7AIdqsJFPJxwlR/ZHZXlQjORxIHkkJBrW+Ro8cxYDNpnvRg3hM5B9jQEGmAAPgF84WCsMbgPTbN+375i5A32S99CbvaeyXjfAOnKQHhh+t/2j5mYqFMYyo3IYMAKhcmL1GU+TWfcPBPxAtfvBH6Lt43bNxo43x93HVnUjquuGIJZfDUIVhvqQhxCQgpRfBsFW7ZvBMwwYBjbIQCAeFhB4GpH8C7qrlsXqwKs/Qr5rJ3RtLDkwuALsDfY6A+GummMG/phJOD9UjWvw9DNgBIJ+jrVYSLbl7yCioDytkl/7nzgZFDRx3SMyOwwITijWDaamBaiDwGYk8gN8F0Q2RoHFRCYcbG4KaAmxATUM9IqBQhdLxt+Y6Dfw/AWWE2OPscYDPrg7jlUg+iQhMZX1Dgf4t+pf7xUSM9PphH1CrzZjFpeFASMQykJ774025dz9JfN0Ao3sPdpnEJgZj8KxjxaeN1ISBoNIwOfdiHAEgB2CVwSKbRo4w4BhQDcDa6sZthNwL5ieZ8EeASvJsxez5d8FcJB/oPg7gRYC3JROOEF/BzMqjAHFD0OF7b6C3Z3C7Lg5L0j62U31NoKsY2L6DSC/BaIRqvENnmHAMBARBoiWQMp/guhwAMpvRTH4hdgK52tTdyc3Ijs2bvSAASMQekBW1KY2Zd1nGdgzan4ZfwwDhgHDQMAAAc+1JJy9DBuVyYARCJUZt4LXqax3e3B8pzwPoYI5Ma4bBgwDkWGgm0DTWxK2lqJukdllH3bECIQKDm6yLb8LkXgE4E0reBvGdcOAYaBvMrDU9+U3Zo6uerVvbq/v78oIhAqOcVCBcMQ23htE0NHZsYKZKdZ1U6aoWKbMPMNATxlgxrsdCXu7jV2x7CmumR8eA0YghMe1FkvJrPcWgbfRAm5ADQOGAcNAiQww6O1Mwg46pppRoQwYgVAhgWNmOhawq3IQqyT2JPKuhsCeYHPlsEJCaNw0DPRHBiQBc+HjnFrLfqo7Dnkn4NGnajD0R1IqZc9GIEQ4UuPmcazGxmaO1V3j+vRlIeh8Aim/1hhhCoxrhgHDQB9igIGXBdGlBO814qquGuCDWxLU3Ye22Ke2YgRCxMI5bt77dTXW4FE2iUHs0Aj25YUE+riPQcS8Ne5EnIGg9n1Qgjf4z7X/MBj0yf8uuF+o9R/8/58aTKDP9coIGmgJFP5vXvffC021gqJZ/aa5VsTjXVnuMS8mwuUQ1AqPV7mDndysLamjsjbRt701AiEC8Z0ylwd0DXS/ZAsxQgoaSVJOBNBo/vBGIDj6XehmUCcF3fsIHWAE/9kZdPVjRhdR8A8FX/I9G1KChegmIC8ZeQLnQXCZEVTP80DIF8TBWmHgCy6Ihv8OWvvFHwiFdSoiaOLjcNBjg9kBhCMIMQZiJGUVRM81AjNbzKgmQnWhiycHbb65BoQBYKploJaCLh9sBEjPgl9hswPBKpFlQlqAFpElF1vVzr+nbk2dFbaTPueuEQhlDGlwTVGQNZZJDmPGNwnY3YiCMgZEmWlewqBWAr0P4qDT3vqryAVfyYROCf5IEJYRi+WQvIws+VG+W660BlSvHDECqzfWOEuZ2yEDNTPbixejzu/sGhSrEoPYF0MkaBBsDCGWQwEaAsiB2JD6YFjMPJSINifQaAarLjseMiN9yFzpF4SCU64XAPw9+OwwY06mIfZyH2KmorZiBELI4Zq8mEfKvHc0EzYBsDOA/Uxvg5CDoNfcGkDeyB5+Y1fF3hfLsMyUmdVDeDOzaG1bNbSWBm7mC+8oME4HUKPHmkEtAwOBhH4MwCsQ+Eiwfc/0OOXK4Ee/NWkEQgihb1rAA9nxD4fEASDeGoyvAsFxqhl9jwG+T1j+2dNH1Szpe3uL7o4mLeTh0nd/CVDQUMyMvsbA2tduzwH8FiQe586O+zNf2eSjvrbNqO3HCARdEWGmVC6/A4POAVOjENiOGVuYVwi6CN8ALgdtbQvv00MQZPw0S5ySaYw9H/IujTkAydb8HiToJgBf008IrWIUuiEGJ4FmhMdAcKrwPhhvApxjn6/KjI79+9Otq8Nzpe9bMgJBQ4xTOfdMgE5kcBUxhgEIErzM0MeAy+DnAfoXCI/D9RZ8YsoSexOJ8wHsqM98AbmTCLctfPPJ8x7bf39Psy0Dvx4GgsqiI7fxrgLhhBAE4TywvIJ9GXRULQzh2COlh/1h4RsE7BEkdZpAaWXAJaKlDHQL4jum1ztXa7XWD8GNQFAU9Ant3GBJ724AOwGwzUmBImI/CxNkNf+VJf9Zwnm0ehXe//hft60Cjx0L2Rzc2vu4CEtwitPuXQpGIBC0PutE+OeqF+1vzT6ihBsHWqjqn6Dj7mNr4K7ew8z4hmYGguuiV6Tr7Ys+/bw1A/TYYxANA//7vK0a2jE0lnf2I0scTsB3QhAvmrceSfjgZCEQ5vN8Yf9kZj21RdLLCnNK6x/NCuOieHeZacq7qBGdqFvD/vcE4QIwjygewMz8FANBvnMXQGsA/jjb32VgLoF+56yw/jx1d1rRU8aCBLY3FsopLGVw5Kz3BIeQlewfMiNR3d5TP8189QxMzHK9gPs3gOLq0T+D6AJ8yvC4c2cz0WeviRZheNz7XFe7In8IER22Ni+JqtcuIwfE1eBCwmVF/Y0u/fJCEYT1aAq9AZZXWnb+j6K6dtXUrbDGvIboEYFrn8SeL+nfK8a38/Y2e9uC8SMCTuG1pwVmFMeAC9BHYPkhKBAEhRo9LpH1VyHEA9NGkbKub8nXuxLkWNcAOLQ410qeFYiZ2zIJ57SSEcxC5Qykcu6NYDoBCGo26BsE/JHIPktldn1Ta35nKehgSP4+iUA0cFCzqgqgTQEOch607kkfW+EjBzU/JHArE+63hf3W9FFkkod7EAYjEIogK7ivvajd24vYHwpYJxFwUBHLzBTQOwC/AeCDtWTwcmY8LSD/vurlqiW6juNPeJ/rOpd7J5PAFSEE4eF0wjk4BDvGRA8ZSGWDUwR8q4fLSpl+Xs1g+5bbN6fVpSze2JrgNGxJ+5pt2LcPJoF9Afo4MTKonzLSdHPdGIOf/PtHGf6NQljLF75hP/PY/mRyhTZCnREIX0DQhPkrhwlR9XUhaARD/Azg+qIfxf438SMizGdQGwFrICWkEC/GLOuJqSPpv0mDunkJ8g6y7p4g+itQSBDVOVYK19tp+o7mSqNOkkvFnvT6muHStl8DYWCpGEWtY3wI8HfSCee5MI+xj85x3Ia/v5By13W1pKqZOSjLHiTkDinK9/44iXkxE26C5MXWgNi/pm9Hy/ojDcXs2QiE9bA0eSFv4Uv/YEi5N0gcAvB2xZDZv+bQOwz5hCCaJyVAllhKUr7sdtqvztq5fPXUCzUnLPfXAP1YdzyIcGZL3LlOtx2DXzoDTTn3DGZcWzpCcSuJ6F541pSW0bSquBXqZwUl2/2h+JLvu7uDaVhQ/VoyByXbv06g7dVbrHREehOEByHxLDvWQ5mR9J9K35Fq/41A+BSjyZeWD6GBdSeCC1eUgn+2Vk14heN1MOMSAi8Vtljqd7uvZUZXLwnzV9PG+Etm/RMI8raNzevtvyfwLGk7UzIjqau3WGa9PgaSi7iaPPdOgCbos7IWmSFOzCSs23XbKRq/cIsH2zL5XyZfbsGgTYnQbG5RfJZBInqX1xZhepFt++bMSDIFmNZRZAQCgELGe7t/x7rjuV0ADC76Q9i/JroS/g5RzdYvvKvN+W8AvI3msKxm8EGZuPNslMSR5j1XJnzhlRP2BLx/glCrdxP09vC4tX0pNxr0+rUWfWK2q17Amm+SHNfPNgMrCXiJwe0dLzlTdOVIhRFrVTb6tUAo/Lrw/TsA3g2MBIAqVcT2VRwG9s/E7cej+MWYyrpPhVFFj4hSq7qte2aPoUJHRDOizcC4eRyrc9yjQNQSgqdPpxPO3iHY6ZkJZprY1nWAEPY/eraw/83moPspoY2ZX4DjHNefTwn7pUA4JMtVW8K7AoyJRBhirir24I8A4fk6tr9+S4K6e7BK+9RkNv9VAj2xrkiVRnt0jyfcc2fV1wS3M8yoEAbGt6/Z3pbOVQAfqdllD8z7phtiz2q20yP4k7JctRpeUPXxKz1a2L8ne2CsAGHmf2Cf+1DE/uaFEZp+IxCC4+d3Xlg+0B1UN5GJfkGm61vJz5dTa9dGqVd74RdizM8CrDcRi9DJvpyUaay6t2TyzMKyMZDMeT8Bc4v+zz69sTpvJaJ0wjTlHR7gdngdZSO/8g13M/PPB5KTHhYvtGDvcWGsSqSgXwiE5CIeITx/JwbP6AfXf4IHN8ikFoCm611k75OOU3CcX/7BTMmcewuBJgFYV4lOi1vdzLhwRMK+rr/8cdDCYhlBgx8Ji7PeGYLosqBPikZXuhjckok7P4vKq7imdndflghO2HSMVSDywTyoH5SYXwXQeM93X501umaRDvhAQZIAACAASURBVDKjhNmnBUKytXs0WWJrZk739Ws+DHqDwIsAWkWC/sm+vxOIJmr5wAq8kq53gmTOso9kW34XAu4B0Q5anSE8QcSnt9TH5mq1Y8C1MpBsz+9BPl0PCgoO6Rw8n23nyMxIelmnlWKxU9n8awB9qdj5PZgnWXIaAv8G04EUJIISjejzpecJb8PDBE/Id2c1VAWJn31y9EmBELxvtHyxO0gEVQ/366MlpSXAr4PEa8TwJOHBjm7r9x8fazblvAnMHFQS3FbHk1sHu7rceQiT5q0YKmMDMgC+qznGQUXIi9OJ2DQdXBrMcBlIZfOTAbpE8zXmoC3BX6pj9sRfDafl4e7ws9bWXvX0gtLm6gfzm8w4P9MYmxWAFzpqDvd/QD6+zyRtlhhDVBAmwYlmXxtBw64nWdKNlu2+MH1U3yuY1qcEQtOCDwaytckBAA4HOPjS6GvVxIJmRq8x+GmAV5DH/1ot2+fMHjPmf7Lpx+d4c5u94Avtezo+lVLyxBmNsZk6sIvFTGa98QRcrjf3ILipIO+tgzOl3IKoWF7MvC9mIDmHq2nbQm2En+ht5EVvMOQFmcTaL89yjWRbPklEaT326U/AmsnpxMB15dT/a2XKXHa8Qd5+DIxl4iGEQkOqL+vlXM8uvxCVCv1lHgT4vprBsX/qKrldhp31kWZNwRWeBe6uZItjCTwWKFxZ7BMj6GZEQCuA+4j5XSaa73Xac4upVpjKeRkwBwVidAjBf6cTTvBhL8sovFoguh7A/nod4HYQTUjHnWjkXOjdbL9BT+XcvcE8EyDd5dPn+OAzZiZiL5WL3FQ2Pw+goPyy0lH420Q0Mx23kxsDHv8K18ZqvN2k4B3A1haAHAfCjkF1qY2trZx/z1ki8Rg8OXV6o/MCfdx2vnI28D+e6vjiCJWO5CIeInzvPJY8FkS79ZWjrKC6F8DXwaeFAH+wylv+8uwxm/eoGUwq6x0N8FU6XjMQ0fJatkbckqCVoQZ8XWGrJVk3SAAL9jZAn/1CPsfZLfXWHfpsGORyMZDK5o8H0y9BqNPmA6FTSj53ZMK5tRzJrcmXeIgY6C9kLnSBVDzoTQmcOyNh390T4KAktDfY2xmStpRE2xP5ZwDUV8rZSzBeYIHHYNlXVnpVxooWCMlW9+skcBMYDfqrpPXkI1Dy3BUMBEeBD9iWvUxUI9eb64SFvgS29yBYS0JWNwjXpOPOhSXvtsSFyTb3ICIO+i0MLxGiqGVBRbUBg51d+tKRYVEb7yeTCl0/V7gvk/ZTBF7CTMdkGpxHwqZ2Yta9khhnECGm3DbhSfI++nbL6M1K7j8x7k2uqV2dj5MthoLxXRAdA3DlV7JldIDQRgInt9Q7TyrnPiTAihQIzExNWfdpkIgDrLtjn+5QBNcSn2HgfM/Ntw7iAatu2xEdqo6nmtrcfzDhG5o28UI64eyuCXu9sEcu4U1iee9sAs7RbZdteyvTwEU3y+XFTy7iLcnz3g3Bi6u6Y/Y194ScsJjKusGtm+BkVflgxj8zDc6BSoCZafx7GMDLMMh2vEZivgyCvgaGpQS/fCAfAsgOv9vep7m58monVJxAmNjm/VQQB++etyxfzNVYFiyOm95g3akGbf0oE9u6DxMkfgVgM+V2CK1Y4x6U/vKAN5VjbwAwlXWDWymP6bbH4OszidgZuu0Y/PIzkGx3ryOJ00PwZGw64Twegp2CiSNfXzM85lh/J1DQAlr1eJ+kPK6lseoPqoE/jZfM5psINF2njZCw32PQWZmEXdaE1Z7utSIEQlApb6DVuakUznVEhTa+FeH3J8EgMCQ6SGCVZHqSYJ2YTtD/ZP32NHjFzm/Kuq0M6PgjkWfmezINsVSxvvRmXvBrD573WwL+rzc4G19LH6Tj1hZRKXKzcX/NjF4xUGjo5L0Pwqa9wtnIYmZ+wvPcH9+1Y20YJxZItXkZEH4KsPLXCwS0tSScoJV0KOOnrbxptfB+xYx9aG3OSPBPZX0PBA0/ie4lr/vMVf6ApVGqtLmhIEae4OSi5UPIH3goWJ4G0M6hPI3qjOTB/BaI/sPE98bImTm1nlaogy8OKZV1Hw2uGpGeD9QjbNvf193QZF2nxu8B/Mfidl3yrLwneJ9ZpiBSyQRW4sJka34PEhS8K1b+ZfpZPugHw+PWn3UnLI576s2aus22fADAQarjse5m1Zx0wtH16nKDLhfyqiz3aCI6ipm3Aiio86I5ZooZJLwGoht45ao/ZL6ySaRbS0dWIARfCG8tQaPveUeBcW6F3U4I6hI8SaB2sviu6aOcfyl+xHoEt+5Y/m9aShETWgl0WkvcfqhHTvVwcirLmwFeu7by0ev8Ycbv4NiTKz37uIf09vvpwW0oeN40Ag7TTMYqwK7XfYKYbPe+DeYbKEjgVj+6WOKbmUZHV+nmojwO/q4R6CgmHsmM/6PKEgrBbYerQPKe4fHYAt2CsShC1zMpsgIhmcsfQ0w/BHBIqZsrw7q3iejPYF7R3eneevfOA94qgw/rNZlqc1dpuc5F8InpzpaEfaLOvTZl/V8w5M912iBgPkMenk5Uva7TjsGOJgOpbPeOBHE/A7rLdv8yHXe0PsupbP52EE3Rk+RHq9IJO+i7EIlx9OsdW9lO7GQQDSGW36moK5NED4Hx+3TCjmSV1sgJhPH/4Vp7tXcOGKfo/rWo7OlmfomJHgbL12KJ2OypREHFw0iNVNa7W2Or2z/l4Z54d0KPIGrKul9jQH+hIhI/X9394e09rTcRqUAbZ0pmYNy89+vqnGEngOTVJYMUuZCAvVsSTtB+WfmYnOVtffi3Afx95eAAmPnuTEPsaB3YvcEMKjfmB+YPgxA7E/O3QFQZra0pqCXDN5Nn/7JlNJV8ZbQ33G1obaQEwsQF7j7CCrryFar/Rfp6S+E9HPMzTLiLfXqlapD9Um9qFugI7qcxJ+W64pKtrCY77wN0vi4VHORQ6K+YSPdLeOfMSFQHrzHM6KcMTMx21RNbVxNpf9UQvMMPysIrH8nW/DFEdAVIw80lABJ+PMqfk6C1dfdK7ytEvLMQdCQTguuS0a7YSPABussSPH3aqPK+uvn0AxkZgTAxmz9RgCYDGAPAUf6pUQcomTGXyL9I5umtqh1jbVE8MVjfdlNZtwuAlja3BFzSknCa1dG8FimZ9U8nyKDplLZWzgysJPAZw+NOS1TfBarm1eCtn4F1ybBNDL6OAJ3H6F1EuKAl7lynOhZNWbeZgYtV4xbwiLrScbtGC7Zi0OBEwR2cT0iIbcVaPv4/e18CJVdVdb3PG6o7E7NAxJChq7oDUUCMKOAnQQYZFT8Mghm6qgNhcoAwKqiBD2SefhUhkK5KQgCJCEpUBhVEFJAogoQkXdVJIBDCECB0J+muN+x/3eoOBEjSNbxb9apTd+larJV7z7Dv61fn3XvOPl8MeS6bQ3KRGLgtGY38PGA4ihJX+QCBlHjGPd8QXEDmmitV3qbNQ/lvy7BOor9+3e3RAa9WWxlcS8Y7h/SvLepJ6XvRowDPTcYi/+57an4zxpPm4BwhligyJn3PBXlrVuzz51aANjo/JGqzyonAhDS3idC5GiKnatRLEAuWvWod8NjB4galpzmT/ZxBUUGH4gsJfBDG2amYeWPggnUKJGVyGz5ZZ2GQS9WfBvvrVFeibNXf4l2fvGrEXOuaSpMr6Xvp5oFS7g9R3PNAqISd8J4aiPzFFTNhGnhDdzlfHrAVPWXyIu5oWu5bRQvY8kLVfvrUIFsix9PuHQKcAFDbs0HyeVKmzWqy/6wJl5rYKkSgeYlziAivF5G99JkvDoF7UjErsPv83lbWinxNy5G651o7zd5DFDtgVQ7V+trzsbPlu6pNvOZGbyVB5ID+VVmJXFPJD5eKBAiKKnnqUsRcz1X3ZN8sCUY9ixX9sTqOf0YMntvaT2ricwEZnBd0ZfkquujIGuvGGWNlXanb0vwyG4xu947eY8FSxW1yvUBcCJKtUWuqFgU1oVWNQEvGnQEiQdDS6MhTPqyJs2JScu6Lunt31/pnsedKLvghfCnLjr3mxnYse4O24J0BEunsvhDjGpDq6kFdYWoJqkqynfiN+N4PZzbVtQVFv1+IPeUPEFQfhYz7RQhuIaExOi8Eht65Iqo29R0A//YN86ZZDfL7IqSEdsn4e2gO2dv7Gg3+RouRIqtAnlgqnaxq4DKky7uV4CQtdvYIJcgnOp31x80bs+3bGvWERzQp41/EoAHW+m0te8Bgz8vm9cNnmhHXddBpEe/NbEJnJV5UlQBx/ELuMNh274fkmp1pe1cKZE7Hm+ap8w6Q9aX4mVjGgxTTKIBdSpGz+bVyXOez5vx5J4inR35lpMaXdB0Fw/y+qJ4Vgu1DmND4nACnt0atp8p9ra3tod/cVrekncNJzNVNa1r4o6bKS/hXgH9IxiKqd0G/HPElHG0Y3jMEtbS4JWXCiJh5z3Qp/l61JeMeSfKa3oRVPftAdAD+VcnGOj1fW3qsLkiqyuEY0LZ+Vwv2SBgY6PtiGYbs5dP/igj2A5Bf1zyRdwEuAPE3UP4twix8rDMMa/maKF6bJ/3rB2NjkBNtzkUALoBgSEHgFzSZC8U3zmttKp5sbDppLU97J4iwoNbLeZtJdJL+51NNdYvzXlNlExMZbyrIYwCq/A2dCapFICNvC3hSa8x+uIjFRS8pa4CQyLjfAqmaVWi7Uy4CCY/AbwTGomTM1JP5W4RRupZMynTsbLLuesVApknH7zzfOmN2k7xajHxFehKJ1P2UZLyY9XmtEaiTokeSMfuIvOZX2aRT2tnoeM4BYph18L0vUORoAXYO1A2R10H/ISGe9A2jC573VH/98UiknQchOEznlyXJFGz7B8V2D528hLuZhnezNu4DcI7APkc3A2Sgz2iRwhJp78cAxxA8XsJVbu9AZFIyaqlTorKMsgUIibSrShivB6gxEi8QM8EfBVhgiXVdJXokFGhtINOnT6fx0iTvKPh8IBCBHxfii8l9W0dFnitGfkubezyFv9B3TJqzqguCo5NRW/Er9IsRf/ad7TB4yLEi3B3E5wEokpyy/X2DmA/gaRiyontd5+/u3Gs7dVXXL0Yis/4roKWuG7WV2qp+Lb7vfWdWY929xYDWspR703f/rS2IoRzbGjN/v7VcL01t57ZZzz0Hgs8LEKIPiRyR0jRdnDMfffbK8gJJpL3TAf9SQG+3tHz/sETQRvr3+sDcddHI4v58RLopTOLt2c8blDuoh6dd/SxdTPOV61IjR6pEz7zH5PauRtM3VYnWMXkvKmaiQDvVbTFmFbMmkVk3TGgd78MYK6DKyh5a1sDgw0YTwOuA/IXgvzzD+vWcBnm5GL/CtqYl7VxJddWgcxDzPc87Z/Ye9W2FqFGZ+eK554L4v0LW5T1XsIQeJ6WaIs/kvaYfTBz36KPW8E+NazLonoQe4qzRIXHrLcD4cTJmar8K1x4g9AYH6uheU+JMQVvWReH9AvmZLdbCreXU4KMI9XREc88GcElB6OU/eZVRb42ZOUzyTv5TJxsvT/COIXiPLjKnXvMdb4A1dPanqrdUS/kx+RXuaKxzWyA4RoA9wxJ8b/SIrAahelrMt2m1zmgSXeW1+T+VJcycvOi9HU1zwGsQrdej3QI5YfeoOb8Qwq6cbfbAF0DuWoKLm11K4scDt7NuuHln6dQhP+wyVfWXCXeMKfwuIMeBCANR1OuAcYnuIEFrgNCSdqeQvDIcCYmyFGKeYltYNGOElKUfe5gf/HibGxdhq66vTV84dlY08q98MYi3Mya++zvdUbrne0fNbqrX2nkyX5+LmkdKc8Y71oB/OSG7CbB9UXLKtEgE75B8FTAuTkbN35U7CztIN+MZ5wgh9D47xBKa1rGpBsmbFr23VfU/g/R1I1kk2ZJqjCjegK16TF3Oodn1bpNYnAnIqIqDQbwlIhe2xqyZumzRFiD0JiTeFoqGSyI/9xxz+qjReKeQyFwX6GGQe3Ib9/DEuxpQWbs6BtPJWCSvVrM5xsSMp7KH79MVsPR4yEwW9ucqSTxSCtI91LFOOyCq+iBkWdZ9evYeiPc6Hath3hhR7dCrbvTyiPwLkKhG4wn43+iMRubne/WZSGczgDRosYmY78I/f05j3SIt8qtMqKLiXroY25u2+6PehoKV9qADIqfoSlwMPkDo4Tk4jIBKgotUED0fgu7Obayd522lR2N9YZ/IOBeBuKyvecX++/CoZeYTkJ2W4c7ddFdpDQ5ylQvWZ5IxqbpWziqAGpRxzxXBj0EMLHY/QrFOsI5iXLp2lHFtvj+AobC714hEmntC3P9qSwbsjWTrxNr1lqi80Zfv4++5xxz82W8ERtX8MX2Ci5NRu9+WAveF75b+Pdd5uMN9s/dKtIIkS5IV8NjWqPVI0Cd0wQYIub4KzhcExgMAdyoF/JLWEuq+M2WbHZfNaNhhTUmy+vHieFs2LiJX6soPEeDG1pitch22OKa0exf4vq/s0DcMabVd84JqugtXxFb1+3buaLJ+FoCvSjmrEvTtBFQnVBAPe4Y1uasBq6spUJi6hDs5lncVfLZohEghdEGy0b66Lx2JjHMTiO/1Na/If18F4YXJaEQ9f7WxCQTUqZIN94cCaQH4icqBJG8S/tdSUfvpIIOEQAOE+KL1I8Sy7gbwhQoBtR7kMnj+tOG/uvKR6dOnK8rk2tgMAuPf4ODBa5xfAKLaa+sY2c6sNWRLR8qJDIeBrt5Md2IlDIxPRu1/6HBSh8yWxW8OobndvgB+DEBLW2Addhco81EClw7c1lpQTQlwiYxzAHzMg+CTBfpb2HRxdk9GB67Y3KIj0+m6XTFC0R5rOqnl7M6sfea8MVtncmK+m6VaB0zJdB9GGNcTMkpQsSTGp2lZJ6ZGyvJ8be9rXmABwviFjAy0nF8YRq5lc9mHiLzm+/5vRXBbkB0Fy+5ImRXGM86lQpkGcFDQqgVwCTkpGbN+vTnZLRn3LpInBq17I3kk8RPDt25sHZ2rIQ79UFnphlk/0RA5g0BeeRyhd2ozBhJsEzF/YdQZdxRS9VJJf1UVECz3LDJXBRTYO/SjPgl5d2tj5KTN+dqc7j7BhDGXQF6U2QVithbAdcmY3e/J4wrEZbPT48u4j+F7p4D4BklVblyBIbcPz5pnTg8ozyewhzuRcc4HcVUFECFEXiLw07Xdb981b8zOW2UpTrG45xqWQFT3N9VSOfBB4vlUo733pgQ3tzlfNoA/Q7S84HIqCfzTAM5qjdlPBu6cBoHffonbR7Lu+UJMhWAHDSpCKFJWE7wtG7GuvnO4VAXBUkva2d8HbhTkKKv1DML1gUNmNdqPb0pBS8Z5TmM/mwUeOHV2LPKsHuf6p9TxC98YPKhuh5OE/kWA7K4zgNwsgmJckIyafV5P5bMDgQQI8bbs9wVyjeYa4U35o4hZHhXKza2NVlEMZPmA1N/nJDLOb0Acp+lhfp3gcalY5KmP4hhPOw8JcJgmverTrpvAJcNfsa6ZfnDxvSHKtf+K8Aaud50gd7+tj7WvXA4VokdkPYgULXNaNbRUz/U+yLjnC6C+sDUd8YMEHknF7K9+FMrJaWd/E1BVPzr4ZQjB/cmo/b+FbGFt7gcI9DLCnglgnK7322bxJhyC56UaIzeVuiclBwjxtDNOILMAqmiprMMnLjbJ+a1NxdH6ltXYECtrSbsTCF4LIHiiFULxh/8qGbM+1JkxnnZbBFSsidvpgobAg77hfX92Q2HMdLrs6UtuS5ubpFD1yAhTr5K+zA7w38WB+HcmoxF9fTgCtHZyOxsN371JMxXvuwTPScUiirPk/RFPZ+8Qygk6Psp6rmu9c1ONdXcGCNdWJypHf+24R8HAT8vtPKEYTNmcitmPlaK7pADhyDTrdoV7R+7rU+Mx8aYcpCHHG475SLXcK5eySbrXqmOxwZHtnwCwyauAAPQvcMU6ek5v2ZZK6klk3AcFOFRbD3bibTHw09aorYKQ0I9EOjsHkG9tvcFB7xYRLoV3pWIRXYmzgT4LiYyjKI5/AGi7DvIJ/CkVtY7YkJ1+8lLu4vnufFDPtSCA59x11oFz9haVh1AbJSBwxkIOXlfvHS4+y3vCTbjqFGgVrIl/jEl3sS6UFCDE084NApxW5uPQLH35xvKV5sOPVcGxcbEbU+51LWl3BsFmLcelIutI3pKK2ecov+Lp7p8IDFX+mF+74aLAkIeyME+oBlKkRLt3CcjzQIaBwrUotANdJFhP4NpU1FYVHKEeuTI3uvNEcLhGQ1Wp9vXJmK362SDelr0BIqdqypbPihitrVHzdI3+bFWixz1Ka8QnvcPFyBHB6bqO2hSmXQTUe7fPUvPNbUjRAUIi7X6T8K8UXQxem7CYwBsgJqZi1p+CrPXcqp7WzTjbexqkyg2DbQv8vj7+KhmLnDh1wQLb2WbvOyH4pkbcVwFyXjJm3aFRRyCi421dh4mYisZWb8lcINaWU4isFDDRGrMfLqfWYnTF09lJIsbVunoh9Ngk84ZHzW9PF3ET6ezdvadNxZjb15o3OqPWsHlSnWyXfTlXsX9XHEFp91ARuQOgpnfspryTjE9cOKvIHL2iAoTxCzl4sO1cDZFyRZkeBQsNH+e0Ntp/qtgm93PFibSjusjF9LjJFRD8CL7ECJwnoi2SVglWTySj9pf1+BGc1PjCzl3FjtwPkUrxhgTnjA5J5NOmZX/99lHyug7xQcpMZJzHQXxJY0JaN4hrYHIpfONSgJ8K0v4NsgRoa43ZTTpk12QCze3OIYYPde35aQBmeTCRXw7Y1jy/GK6RggMExQef3cY9SwSK+U4/vSSRhfBJQqaXmnBRns2oXi0tS5wv0cDf9HmQ69So3qEn6NIhwDuubx0xu0l0Na8JxPREWrGuuarJyrGBCOy/Qh4ArCnJmChK29COyUu4n2W4D1Jn8yyRX+UAIFWuip4hOLCaCMX0gKBXaiLtHERgugAHlOXKQaDyWC6MvGvdOGOsOIV4V3CA0JzuHmPAuAE95Wm6R5aQx0R4Se2h1Q11j/xE2lEvYl002RuYLfUFlsR9ycZwl2d9N826tXB/QOBcAIETVJXnSSmblrUqH2EIrCt+VkKyVTmsbcm4vyH5DY26dP/9vJmM2WU8/taIVMhFN2ecA4X4sfSUQWrPSyDwsMA6u9BeNAUFCIpBjJb7PZ0Nft7fV4EH4HHVoKa1wVYZ9rVRBgSaM845BqFKHqtwiOvK+t3mRIf02eSmks41L3YONMzcMWPtaiGfjSCe9n2cM2u0/fd8pldqTm/TsVehh9lQu1tiGGe3Npg3aldUU5BDoDdIuEwE/wOW4bpBcLG41v8rpPKvoABhSqb7074vv4WUpRf2f2nizNQoW+ORd+1J/SgCijJ7cMRdX5bro4DhV2yaqZh9UcBiAxU3qX397jbty0h+iBciUCX9UJiIzHHEuXhOwwC9fTtKxK55ifNTw8iVPVbb8O2oVT9DCjuCrjYnw2bvlKXOl32PPwfkM/pt41JD+PWZ0boX8tWVd4CgWluaHe6PBLggX+ElzHtL6J3U2lhfS0gsAcRilqp+5y+lvV9COLWY9RVbQ3S461cPnbP3ruGt3SalOe0dZQhVdYU2gqiK7YFOxYJ3DZGJM0eZfwhzBdOk5zjIGui+BmCITjiClk3KLSNi5pn5tGcPWvfWLq83cVHll+yoGwtVeegNiVw2Z9f8OC7yDhCmLudQx3H/q90JgefTO2pWrD705U26N7NS8uNt2X1EJDgOdkWInfeTVqTXnj8p2RSZG+YfjykZRn26qnWuSk6qjQIREMHfBVZ8ZlQyBS4t3/QcCVh2AmDMKZ/S0jWJz31qjLSl41ishJa0czgFf9B/1SBv2ba514wRooLYPkfer+2WjHMpiR/1KbHECfS9o0fcVffg9OlSa9VcIpbFLlcZ9oT7awFCXyrY4yNf8nz3wNlNA9X9byhHD3skDhK4f67G65tQgCrwSByajFp/FREVdoZyTF6ybjfTsP4OyPBQGvhxox4DrBPCXilSJVgWZeb06TSWn9R9hBjm74sSUMAiMYxLWhvM6fksyS9A6KHGVffSdfkILXoO2dLp2HPnBdSqsmg7tvKF6sespd09GIT6MQv9IHH4iJj15zAfj058ce1Q2677N8Dg+12EfoeCM1CI13zb2jc1UlYFJzVYSeqabnnaPUQE1XEKKjiktcF6NMxBV7A7FE5p48nI4KXeBPj8UN8NDdZ2J6PWgHxOW/MKEOJL3KPEoNbIhsC9pmmdM3OUvKQBkJrIAhFoWZwdS9N4CGCoWw4T/Kdh2pNbR8mSAl0s6/TJi7oaTcsMtY1lBaQEZZ7hNYW9AVd8SfdoEWM2BJ8vwVXtS0mspsGvzopG/qVdWU1BnwjEF60fIbZ1HQitnTTp4cjUaPvBvgzKK0BIpJ0unacHue5hHk5ONVl/6Mvg2r+XB4FcNUOdHwf9W8ujsQgtIopr/KRU1Lq/iNXlW9JzAvcigNHlU9p/NYlgUWuDNSafL6BKojAl4x7nA3eBDG3rbvE5tcNNz5o3Zky2kljVdH+AQEuGR/rwZgo5VBcuBLKpmN3njUCfAUIiw2Ggq7O0aA19npdqitymC4ya3OIQmJJxjvApswHF+hfKMZ++f16qqW5xKK3rNWriixxq2+7KMNtYbbY5TvaTd+w5KK9Eq0r5Fl/WPVpc4xoAx1TKhj70vknB5FS07y/JkNrfb82KZ7KnCEU9O/oa2omzezI6cMWWQOw7QEgrOli26NoJQu436J7T2li/VJeOmtziEDj5v527ePX1PwFYrp4bhRi6mpCzUzEr9NniiYx7K1hlZaOF7EQF5pK8NdUYUZ1kQz1almQn05DrtVd/FYGCQG52xLxkQxv2IkTUlmhCoKWNoyiuem6+rkkFCJmZilknlxogvApQU6c5aSe8H6RidfN0gVCTWxoCiXY3AZ+KWltfJFuEiYTc63nOeXNGD1hWxPKyWDcUGwAAIABJREFULklkHA8sQ9+SsnpVcWV+MmaXqdlN8b5OWrx+pGVY10L03ikXYeEakGcnGyPJItbWlpQBgXjaHS/0r9RHTCgrkzFrt6IDhHh792fEN/6ihZtfxKOPeUPEjIedY70Mz0JoVTSn2WCKdy3J40JjJLGSIj9KxSzd2b4lu9yT7CnPlCyoJuBjCPjCsdWQXNeSzk4hch0YNX1oFf5wELif8M6dFatvL3x1bUU5EIg/uqxePrVbCpDxmkqj3zLEOnhmVDbLrLjFK4beo9G4jmYSBNt8SHx2zH6yHGDXdBSPQDztXG4A5zMkHPMkfu8ZVks1HI0m0o5KoNR2TFj8rvaDlSL3JaOW1mzvIFBSPRq6fLdVBEcHIa9kGYQLA1clo/bFJcuqCdCKQGKRcwAtJgXSqEFRFmQq2Rg5dXOytxwgpB314/1FDYYRxOPD77S+UiNE0oBuwCJVB0+BcXM4iJPkVQguSkYtxUgY+pHIuC+DHBZ6Q6vSQFmRjFm7V4Pp8bZsXCCXQxCGU4S/mrZ1+u0jZFE1YLc125ijvs+46hRfkdb1mTNYBFZPJWP2/sUFCBnnn6COOl553fX8Y+aMjiwowqHakjIj0EP84swVkRPLrPrj6gRPdL6x6vB5BwxTxF2hHuNIa0TafVkE2sqVQg2AZuNIvLY8Zu3+mIirWVXJ4sf/Y8WAQZ/Y5RGBHFiysBIFkLx7RMyeEGZisRJd7FfLezlp5gPcJXDHBM8ko/Z+BQcI8SXO/4ghSYANwRslLyWj1ojA5dYEakNgylJ+2ffdGSCatCnpU7C8SeK0VKP1mz6nhmBCIu1OBPgLANuEwJz+aMJ7AjmjNWbNrQbn4m38XxHvlgqXDS+mj6mpplqX3Gp4ZjbYmMi4y0FqoO6WdsMzm2eOlk22Ut/skUU83X25wPhu4F3JBD6BK1PRcLflraaHp1y2xtPOQwAOEz1HXVt2Q0D4fC7ZGPlsufwtVU9v/oGqgQ99tn2pvlZovUeRB1JR6xsV0l+w2kTaeRYie4PUcVy8RXsIqP4Vj6Ri9lcLNry2oKIIJNqdn4K4QEM1VAcENyWj9ib7LG32IW3JuPfpyFwXwB0Ea3CtcqGiz1tRyuNL3Uni8kYIKkG/nPV8OW52k/XHooyvwKKEtiu6CjgTVpV9HJGGzex4u3uU+LxPR+J3377KagBnJWOWajdeG1WEQPxR1hufcjt0JIqLyP2tmwmyyx4gAFibjNmDq2hvaqZuhEAFv4AWJGN2qHntP/qg1AKEMvzpVFmAoBBJZJxnQIwtAzofqFAncMR/kjF737LqrSkLDIFE2lkLYGBgAnsFhSpAIP2HU411tSOuoHe5TPKa096ZBhRxEu0yqdygZlwyZv+1zDqLVjd1Ae3sts6TAvlc0UJqC/tGQLBgeIO1//QqSFTc4Ewi7RwE4LG+nQt0hkPwrFQscnOgUmvCyoZAvC37sIgcFrTCggOEXKMe270XEjyHOH3v6FRTfa0pU9C7XCZ5vWU375Q18U7wp2TUDvwPQydkvT1M1HP+aZ16arL5ggn7yNtj8ko1YZHIOI+AOLRcNpN4b0TM2r5WuVAuxIPX09zmHm0I5wcvGQ/YUev4GSLOR2Vv8oph8pJ1u5mGrTjuDw7aGHedNXjO3qKOSmqjShFIZLzvgf5NZTNfcGAyav+jbPoCUNTc5nzZECYBGRWAuJqIzSFALiUlXm1Z+YmMcwCITWaO69hskt9LNUZ+pkN2TWZ5EBi/kIMHR9wODdr+Il52UuvoQR9rKLfJAKFlSXZvXzBDRDZbH1mskcmYXfbs3WJtra3bNAJTF6wc6Gz7iXIFefPdIdaJc3atrqAy3tb9bRHzmjDR6/bT53klDDk32WDdVU3+TVrFQVaHe3e5Oj121lsD5w2T0HOHVNMeVsLWRNpRlShBj6dN0596+6i65/M6QejhQICKNvcO2pJagBA0opWRl8g454JQ7Uh1j3GtUetxEdHxh6HN9nh79jTx5VIAYW2Vrc338gqWNyDy42TUvLW8ekvTRlJaMq5ix9Oei0AY56RipuoMWBtVjoCWAIF4jsR3N3UKt+kThDbnUF94o0DGBI1nLUAIGtHKyJuU4c4W3de1aif+4NGaOrtJXtWqR4PweNqZJpAfAtxRg/iayPcRkNX0+dNUk111P4CTl3A3U9wZEBylc0Nd6dplTnTIGzp11GSXBwEdAQLBhQblrNZG+095nSC01AKE8ux2FWspS4Ag+INXZ02dPawWIFTxo6LZ9CoOEFZwN7PbmwGyFiBofkr6i3gdAQKAFwwfZ81ssv+cV4BQu2LoL4+TPj/ibc55Irhan4b3JVfnFUNb9jSR2hWD/uejdsXQF8a+GOfOiprX9TWv9u/hR0BLgFDwFcOS7N40RN3pfSFoyGpXDEEjWn55UxdwoLOtW54kRQPz3UG1JMXy73LVaFwJyrnJxupLUjQ73V8Jy9MCert6a+ANtSTFqnmoN2eolgABKCxJsWUxP0nLmwPyK0Ej6g6xBldbRnrQGFS7vHhb9vsicmPZ/KjKMsf1XzZgJiG1Mke9z4m0i8F4a4P9hF49wUovd5mjCL/XGq2VOQa7i+WVprPMcb2XnXR3vmWOOaKkiPdrgMcGDQF9OTrVZNWIkoIGtkzyakRJ+QGd+O+6Yai3a0RJ+cFVwixFlOQeeXtsYFURJcXbnD+J4JASHC9sKfHe8BpRUmGYhWz25Db3GFP4gAazCiNKUgboatZE4uFUY62bmIZNLovIRCb7HdC4vka1vGW4a1TLZXkcVV/RqqNajqedcQI8WiaENqhxfPDsWbGIaj9eG1WIQDztPCxA4IyyBVMt6wwQAFmbjFm1Zk1V+IAqk3PNmoB9ym6+YEEyWmvWVHbcw66wGps1pbMLUO4eHblmTXwuGauedulhf/TKbd9W0axJtXv2X3llSOrgkV3lBrimrzQEEplsM3y5vmLtnsU6bnZUau2eS9vG/rW6ygKE5rauow0xf1ORds/E27TkrNQoS9Ho10YVIRBfxnrDDVG750SbcxkE3wMwJFAcBT4EVyUb7B8GKrcmTDsC8bTzEIDDRB3slnsoJsXcF5D92XKrLlZfIu3c30ulaxYro7Zu8wgIxKXggWTU+t9qwamC7dJBqP/hkVSsdsVbLc/LBjvj6e4rRYzzQBiB2k50+MBNsxrtH21K7mZf9C1LnC/RkBTAhkANUsJEXkpGrRGBy60J1IZAYplzEDzcCqJJm5I+BcubJE5LNVrqCyz0oyXtTiCo2utuE3pjq9BAAu/R88+YNbpubjWY39zmHm+At0CwU8XsJZcYkKkzG+3HK2ZDTXHBCCQy7nKQwwte2McCgu30pHnWaHuTjcO2+CWYyDj/BPH5oI0C5HUx/GNaGyILgpddkxg0AqpyYXnamSsiJwYtu2B5gic631h1+LwDhoW+8cw40hqRdl8WwdCC/awt6BMBEq8tj1m7Pybi9jm5whPG/2PFgEGf2OURgRxYYVNA8u4RMXtCrfVzpXciP/2Tl2T3Mwx5QICd81tRwKw+rui2HCCknScBfLEAdflOVUddjw+PWl+pPaT5Qla5ec3p7jEC42YBVHOZCg95FYKLklFrVoUNyUt9Iu2+DHBYXpNrkwpEQFYkY9buBS6qyPR4WzYukMsh+GRFDNhIKYnHRfzTk7G6FyttS03/lhHoLSv/C3revTqudp9Kxuz9N2fFlgOENvdWCOM6EmoIthmQeGvMVkFIbYQYgXjaudwAzidghcFMEr/3DKtlTlRC34CmNw/h62HArd/ZQNyXbLRDn39w8n87d3EH1M0sF2tiHvvsQoyrklHz4jzm1qZUEAFFqEUiKUBj4GYQWUCSyUbrtKIChCkZftqnq+p1ddyZ+QDn8ZVX47WKhsC3PjCBEzNdUZvmtQDC8yNHrKTIj1IxqzUwRzUJmrQ4O9Yy5RlN4rdqsb7LsbP2iPwr7CC0pN0pPvl/YbpqInA/4Z07K1bfHnb8tlb7VOWCuJ7KAxwPBJyc2APqW4bjHzxzz7oXigoQ1KJE2n0VoJ5jMXIpxbgwFbPmba0PQdj9jqezLSLG9SC3DZOthNzrec55c0YPWBYmuzZlSyLteJr+wMPuuk77/GTMDn11yKTlHGm53rUgw3bSsQYGz042RJI6N6kmu3gE4ml3vNC/Uh9du6xMxqzdtmRhn3ca8bR7u4BTinezz5W/FVrTWhtlaZ8zaxPKisDJS7mL53k/AXh6WRXnp2w1IWenYuGv6U5k3FtAnpqfW7VZ+SBAkVtSUSuMz+WHzG/JZCezh3l0x3z8Kusc8pd1hj39liq4qisrLiFQ1pzuajBoKs6Zr+kyh+DMVCxyckkBQiKzbhhov6zLSABr6PO8VFPkNo06aqKLQKBlSdeRFHN2Rcuytmz3fFr+eamRdYuLcK9sSya+yKG27a4sm8KtQBEta2hqpKwKs6vxZRwNx71WpDwdGwvHQt40hJNnRu0HC19bW6ETgXjGPUXIawBoO7k1YQ27PSZb7GHS5wmCAiGRdhTrYZ0uQETkNd/DybUmTroQLlyuatg1yHZaROSXha8u0wqRLgInpaKWIiQK7yAlkXFeBGR0eI2sJsu4KBm1x0CRZ4V4TMm4x/nk3TrfnSW77/PUTtdOzRsj2ZJl1QQEgkB8iXsUTNwupM7y6O5kzK7vy+C8AoQpGecIn9BLcSu4j6Y1LTVSlvdldO3f9SPQ0p4d6/uimoNsr19b8RoE+Kfv+82ppnCfIkxe1NVoWuaS4j2trdyAgOd6TbP3qG8LMyLxJd2jRQx1+qaBRyZQz1ebYn319qiEPtkzUK9DKiy+jCPgZm8QGMfpNFGAr7bG7If70pFXgIDcF5CriGm0nSLkDDWkpXOUOXee1KLZvjZO57+TlJZ292AQf9apJyjZJA4fEbP+HGZOjYkvrh1q25F/A9g1KL+3RjlCvObb1r5hvl7oIRZzDxFBny/gUOyh4JDWButRCfmJTCiw0mjEd9Os64A3QcCZGtUo0d3JqDUgnxO4/AIE1f653ZtO3/+JZsNB3zt6xF11D06fLr5uXTX5m0YgkeYnIO69IP6nOjDiS57vHji7aeCrobWXlHjGPUiQC7qC5VMPrdMBGybwSByajFp/DfOP2eQl63YzDesfgFQFiRPJx0XsbyZj8mbAO1YTlycC06fTWH6Sd4QY/H2eS4qeRuCSVMyeno+AvAOEqcs5NJt1/ysCvdm46iXg48hUo/1IPg7U5gSPQLwtu4+IqLbOVTPEkImto8w784mKK+VU/MWumETMFIgDKmVDNesV4O8iVnxmVDKh9SN32upNAFhVHRPF5D6toyLPhRbXfm5YS9o5nMhd4+v+eHjLtq29ZoyQ1/KBNO8AYdIqDjI73IsFuDAfwaXMIbDaMHBia4P9p1Lk1NYWjkDueDTj3CKQUwpfXdEVHe46a+icvWVtRa3YknJSmtPdRxli3gFgu9DaGU7D3qUhE1KjzD+GOQhU70nrPXcVBIPDCeNmrCJvHR6zzwjzNV1V4VmAsS1tXYdSrLvLVAp7hbvOujzf92TeAYLyd0qm+9M+zfu1dHj8KKCCF0B8Jxmz/1oA1rWpJSKgqhcGR3L5Jroj2RIt3eTyK5KxcLcRT2Q4TOhcTsgkHQD0V5kE54jYFyWjsiLMPjannZ8awA/CbONmbPPtqFU/Q8SpQtur1uRE2jkI4M8B+bR+J6TdEO+4mdHNMyd+/Ge4AKtaFnMILfd7IC4rYFlxUwUeIH+jxx+nmuy/FSektqpQBJrbnHMNgaq/rcbhuWJ9Muw9GhS/OojrNDVCq8Z927LN5NMwZFoyav8jzM7FF3buKpH6FQBD0bOkYKwMTks2RG4oeF1tQVEINGecAw31Wyr4HxD6WUEFF4tr/b/W0dKRr8EFnSAooYk09yTcGwQ4PF8lJczLQlTnMVzS2mA/UYKc2tI8EUikHZWopKP3hrJgQ+KpvtMJkfuSUStstLYfQr8nW9n9gQDnAhiU59ZsrdPWErh2CKwrfhaT7jCD0JJ27iOgszxN99/Pm8mYHXxL4TBvWoVsa87wQKH7EwEO0tEM8WNuiTwEetMK7eBZcIAwdQHt7DbuWSK4skzH0IrA40kR95LW6ADVOKo2NCEQX+L8jxh4XJN4ALynR7acoEuHAO+QPDLZGHlal44g5OYqReCqcqZjg5DXj2U8AFhTwp5hH09nv2hA/kCtvCHyq5595re07bdYByajEuqTGm2+l0lwYhkPgudO701WjpRBrU/iwsh71o0zxhZ2hVRwgKCcGb+Qg4dEvKsInlEG55QKD+CLYsi0WuKiPsQTaUeRz8T0aOAKEeNigjEQ52nk1CAETySjtuqfHupx0n+5S329q1ggvxhqQytlHPl0l2V//a5R8nqlTMhXb6It+zeIHKii33zXFDivG8Q1NKRdyP8D8KkC1+c1XQRtrVG7Ka/JtUkFI9Dc7hxi+LnrRZVzoP9aIRdP8pedjn3+vDHSWajBRT/M8Xb3f8X3rwIkWqjSEuavFuDbrVHrkTBnMpfgX8WWHknW7ZpxVc8NTUeM/FUyFjlxOmm9lPHu7G1hqsdfkVWkf34qFgl9qdnkNudQE5gFgZ6OqXoQ1i+VWOkTk2c12aEn62rJuJNJXg1gF33AyLzhUfPb00XcRDp7NyC6ThHeWAVr9z+G/DpHH86aJCselLR7qIjcAVDTO3ZTtjNDw7gg1WD9phjPig4QlLJ42lG5CKcB6JPTuRjjNrMmS1++sXyl+fBjB4sboNytWlQinb0NkMla7sME60jckorZ5/Q8N90/ERhn62xEAshDWZgnzI3Je2Hf2PgSZ7qYOB/EgLDbWhb7BOshuCbZYGsnZivVnwlpbmPDnac5J2sNgOuTMftSZW8i7VxP4DSBluclC5FkMmqp93ptBIDAuEdpjdjdO1yI+0CW40phg9WqV41676p3bVGjpAAhVxJnu3OhEnMEZc3c9SnfNH3z4UIyMotCaCtYpK6MBkdclQS6tx53uQCwj3r/HrmHuluRghymLY+FeBvAFclG+1o9PgUrNZ7OzhbIiQDsYCVXmTTChcE7k9FIczVYnsh454L8AcAdNNnrA/JIMmoeueHU9LQMd+6mqxj3xmrS+Zw7xDpwzq4h5hTR5HjQYlXln297h4nPe4OWvWV5KteA93dmrYmlNOIqKUDo+RpcPw4wZ0klaEUJdaf9+1Rj5D/lBb9/aWtpdyfQp/ohDb5PAOFActcLH6r7T7RlE2IY15HU1gyKwIO+YX1/doOEurHPhqeppc1NUjhhKw4S1LOigoN4NfyFTVzc1WSZ5o0CHKHR3ndzJZ4NVnJjHfF09g6hnADRElCuIuWcVKN1p0a/+r1oxUhriBxF4PJyO0vwZZMyaWajXVLSeckBgnI8kfG+B9+/VtPDuiVsSeCvAvlFMmb9utyb0F/0JTLOb8BceVYgz8OHcBFZBdM/Ljny41UF8bTzkPScIgSvt8eILH1cMmKldfX0KriOii9jPVzvOoAJTcfH4X1k1bWCzxRtW3V0Ve3lQz1ULs3yjHu+AOoaRNexsXq/PZKK2V/9KBiT087+JnCfprwHpfe3qZj9jVBvQoiNa2lzj/eF3+ktY9T1fts0AoRD8LxUY+SmUiEKzPBEm3M+BFeValAR6wnIyxD5qbjGXbUrh8IQTKSz+0LkVlDfcWUyZu+zKaua25wvG6p5kcbrKZLPGCLfb43ZTxaGTGVmf/t5bl83wD0POapr6uKjqIxzm9e6msBt2Yh19Z3D5Z2wGbcpexKLnANg8kaI6GvnTLg+cMiszXwFtmSc50jspQmvBZ7NqbNHRKqqJ4smLPIWO37hG4MH1e1wktC/qLdZV2C/sXkbIcYFyaipkmZLHoEZr/IRBlnOz8WoGIf/Koj8FvRnJGO5trq1kQcC8YxzqVCmAQycsEeg7pPlxNYGa7P3b/G27F0iubt3XYMApotn3VAtweOUFdzB6/YnCPwzQfTvkjPBEvi82Rhg3zFzmKi8kdCPHKOs6arEL9URL7B36McdlzuTMUtdOW1yNC/uPsE0jbmElvwv1dPkumQs/ImiYXlg1McWxTjFAL5Ocmgl7CJ429qs/Z1S8g42tjvQhzu+aP0IsXL3VvtXAhyoY0pyGSDThs+1Hqm1jN7yLrQsfnMIzW0VD7iqXtAxsp1Za8iWHtZEZt0w0FbllfoGsRIGxoedqndjAM54g4PXdmJfw3PVEfZX9IFTUcmPwsIlAwZZ/7p558JrtCtleY4q28c83aWpJqxht8fklc352ds3RdHmarri4OzOrH1mMfXzldqbSuglKVMy7mEEb4DIyEpVI5F8Cp53UmqPAcuDwiHQAAEqO3059oPjzodoo+vt23fiLQjm2IZ1yYwGUSVCtbEJBOKZbFwoihFTV/32DcmYPa0v8Jvbus83xNB8PSVJe5B5/oxPylt92ROWfx9/D836ps4drYH1KQi+ClZlA62PwUmAInjQRVe8q2Hw6nkiXlgw78uOqSu5k7PWu1rlifQ1t5R/F+L81ka7z54oiYxzI4jvl6Jr82tFdaW8MBm1ZumRX/1SJ6zmNvY77sXiI1HR3zyRN+D7X0vG7H8GyREUbICg9puUlox7GER+R7Kugo+A4i3PZnewdpm7Y/hr4SuBUyLjXKSz8dbwqGXm0z62t2xrldbjWoEPWp9JxuTFSmBdis7xpDkw7Z5jGPgJiIGlyKr42h5OjEvXRq1rqykw2ICb6kUDcf+rOVhjnVi73hKVN/rar/H33GMO/uw39PHBCC5ORu2yZ+H35XcY/r3lTQ7hGvd1EOp3Tl9/mT6cFUD1KPmaDgLB4AOEXmcSGfdbIG8DMKTymym/9FzzR6NG4518frAqb69+CxLp7j0pxtVCHK1DWyGUreoHcHAmewxgqKxsbc8kwEznms6x88buUJWnSqoPirOtkwGMbQFuq2PfNMp8D+Aae43dUCgfvEabChLdQ4rk/FsgDQUtLGwyCfn62qj5h3wDqJaMmyapi9F2vkv//DmNdYsKc6N/zp5OGksXY3vTcqYD8p0QeNkBkVOSUau3T0ewFml8GQMtaXcKySsrevTSixfJZaYpp9DJLmodPWhlsDBWn7R4xo0L2ArVuUDL4OcKSRaNtzMmvvs7AKO1mNMr1PPlqNlNliJpqs6h7jvT3lG+wStA2U0jQU8g+BB4R8BXaRo/TI005wd5/BmIgQUIiWecI4TQ+uwQWAzD+lqqQdL5mtbSnh1LX57Jd36B89QVe0uq0UoVuK7fTZ+6nEO7PXdP8XibqFyDSg/iLRG5sDVmqaZvWoamH4cPbE2kvdMBXyVa6brnLgSYboH8lsKb2NH5Yuqz279byOL+MnejLOxLNPm0yqi3xhSSlT59Oo2XJ3jHsKfjo86rKccbYA2d/SlZrcn3soidvIg7WoYb9w18TYA9NbboLs4fYrWILPTJ+d1cn7yraZuqyf3YlMOTF723o2kOeE0z10u3wDth97l18wtJsFZVL36XtxBg8ERnuVtj/Njw372xdfQnVELkVjemtnNb13f3hMj3SCq+mHK2Ftgc3q8DxiXJmPlLnRuiPUBQxvcGCYpHPBx13YI0iF+74t+5YkVk8dbW0yHenv28+JgLiJ7OjYKLab5yXWrkyIIIbyYv6mo0LVN1OjtG50MPwdXJqH2BVh1lEq6qQITW8QQ+BxgHA1RNn8ryd70JF1VJ6esg/wIxF7hZ4945Y0RvhUqZcG5JO1cS0PzMyAM0zHMKOT1Q7iuCLXHccyFQXR4DHwTb4GNiqimi65QicJuDEKh6KAwblh1t0ziJguNDVHL8FmD8WHdwoDAs24skkXZPVg1HAIYgJ6Hn8VFUvEIsoG1dlxopW8VpgvpSXz7BO1pAdZyvY/hict/WUZHnihHe3NZ9vGGYPwf1fA312CRdvsFjZjWEv1Ngvhj23o9/XUR2F2Isga+X8e9bkZXNB/lPGLKCpvnb/vT3lMg4XwHl9wB1fjmuoiFnFtt1r2Up96bnKv4XPclylGNbY+bvRUQFgf1+qFMDx3PPpWCsZirtArEUdYozLRmzbi9wYVHTyxYgKOtyiYvA7DJ3tNoyMAKPlN8IvbZkY93FRaFYRYsmZbizSe96QY7zX8f4rec7Z85uGvhqMcLjy7grPO8KIfXx8ecqGvBIMmbr5NAvxv1A1qiTGMM0DhDDrCO5n4AqETXoK77XAT4kxJM+0AXyqVRT3eJAHAiZkETaeRCCw3RWLpBMwbZ/kBopqpqn4DF5CXczDfdmlc1e8OI8FghkDmGe837DtTzWVOuUeJtzKQSjRfC/IMwQ+aE6bU7WlZC4KT/LGiAoA5rTzuEGMTcMiYsfAaQTwGOA8YdyHN1U6qGLL+NocdwFEATOnKh8ImXCiFfNe0rpfaCSwUBeK5AxGnHqUNTg/bmES1WHDGhbv6tt2iNIDPIFBpjr2KmIl/YTYLt88CXwrgDPQPC473vPmmI6IlgrtF5aE8Vr+Wbb56MrbHN6S4HV1YK+k0/BCwTOS0XtB4v1P9cbIu2dIELVXVfH6KTvf76/BoEKsHhb9jSBqGB6HASDdYBYvEx52wdPmhWzHy5eRuEryx4gqF+QeMb5gkBUcsUmOfoLdyOYFTkCF8jbED4LkZuSDdb8YCSHQ4oi3hm0j/d1EU2tRwWrQJyYjNl/LcXj8f9YMWDIJ4beSvBDHSBLkbmJtap+4wmj2zpu5pjqoPgt2X9SJr2OgbJm/XaWbQz2PMmrRbtp0nUdv9Pi2vdam3bqrOZKhEIwnLKQO/h17v0gvqTzukZ9nXe8+dqp8w4Ytr4Q+z46N7GMB8F1Vblb0KdFOVX0/W+sfS7ywLwTqofYKh884+3uUfDxfQE/B8H2Ok+K8rHno3MI/McAzmiNWk+V+2+v/AFC7iuT0ry4O2ZY1mUCji8GNM1rFMlSF4EFhsFzWhuA+FwmAAAgAElEQVQiCzTrK4t4dU8dgbsQwKd0KKSPiyId1o0zxsq6UuU3p9lgwL0DwBdLlbW59QJxCT+VjEVO0aWjJrd6EUiks7cJjDjBvAKpIj19yoc1cVZM2otc//6yqSs5MLvWPUs0tRdWLYQddHxmbmzH90q1NQzrmzPZzwnlWgH2661M0JO/UYqzxK8907to1qi6dCXyPyoSIGzAK/eDxex5EEMd4dml4Kh1rchjRtaJv/du/RvzDpCSonytdvYhfPIr3NFc7+oqN/MBnpqMRQJLnom3Ze8QkRN0Phskn6cp0/pTwmIln7H+ontKu3OI5/F6EdHVLVFB5ZC8J9UYmRgUbol09mRAbtWVrOi51k6z96jeEmFV8WGu79rFt3P00QcFhbsGOQ5gXCGecW0lm8xVNEDIgZq7cvDPN4QX+OR2UsbKikI3lYLnfccaDwNrZzViZSUiukJt3nh+os1RpVB98rsXpUPwKMhzCyFH6ktPjmEx7T4JybWi1vasUuQWh2su6C9fRn3hWvv3LSMwIb16G1u2vUrI0zRiRRALlr1qHRBkmXXzouznDMu4FuA4HbYLjLNbY+aNOmRrk6mYnlZgqO9gkHjOryDyWW26ShesqkTWEMaVqahxdbmvFD5qvraXbqE4xdPZMwSiSiE/rfOLsVC7NjHfV1cPEPyE9Fesy0bSQbXWDMC2LYqItzndIno6vwlwSWvMVu1vAx3xtDOt98hUW4kZgfcEcs7wqNlao+IOdPuqTpii0n0p47UQvE6AbTQ60CWCi1ujtuL9CHS0pJ3pBBQ5nY7RnYzZ2v4WgzR4Kmk7GcQAdxh68PiCrpOVgOx2QLwIg7cno5GfBySzJDGhCRCUF4lFzgGwVJBA1X44TOUlmwJZ5TQ+LTDvgO8/53RZz87ZW1QP9VCO+ItdMbHNNk3GvQHIRbpqcxNp5y8ADtZke04siXsp3gWzYvUl3wXrtLMmWy8CzemuBoF5lQDH69WER5MxW0sb7/iS7CliGJcB3FmHDzas6IwAciZ02KZkTnqOg+x697O+Yewl8CcQ2D/MJ9O9OKhy+zmmb94+c7T8XRc2hcoNVYCQ29xVHGR1uheC+B70RvCFYrX5+eR/KPKgwF/YmY3cE8YThUTGvRPkScE5vZEk4ncerTNmN0lR3Ad92dSSdvYn8I++5pX872Jc0Nm9+uZ5Y3ZWJa+1sZUhMH4hBw+KuGcKoFqgax3i4oDWPewndSg5Oc1PeXB/oYsTgZC5qZgVWN5EUBiMv4eRwZ/zjqfPvYQ8AiKhqpLbgp/vQfD/BnRbV908RkL17gldgLABRJVsQ8pxInq6DQb1UG4sh8RrPQyFXINu7+fJzwxcoUNPMTITbY6q+9dR2+sJ5NbWmHVmMXblu6YsVLfkYgiPT8bqqq4ldL441uZtHgHV4RQw7tXdMEyAq1pj9oU696Kl3f0FyVP1EP1IRzJm6bx+KQiaiS+uHRqxI9/zye0hcowAuxUkoLKT/wjwN0EmdwfpTmgDBHUXuLwt2yhiTIQBdaIQ9iuHD/aFcCD4G8ClPdG2/ViQm1aorPgiZ5xYuS50wd8dEksMA2fNLIHkJR9/Eml+AnDV8b8+wpoe+u17YVkn9yeq4Hzw3drnxJdxO3HcmVDseXpHB2A16GYkjC9xj4Lh3yCQRg3udMF1j0juMaAkvpNS7YqnnXE5RliRESC+DOjJryrVzs2sV2yuV0D8O4dHI4vDmvsU2gBhA6jxZ9/Zzhgy5Gskzw4bsVIeD04WkFcArqLw7ojYs2c0yJo81gU6Rd3hExin6R7uEVrW11IjpaDGTIU62Js8dizA+wtdW+D8LH1+aWtrTFMgRv1u+uQl2f1MQ/6m/0dGjhseNR/Q/YOQa+Dk5tqnHxb0ZvUQyuVyKA4JWnZf8no60foTRTiBxFCAitMl0te6MP27CJ4H5Aa/o+P+sHcUDn2AoDZ2/MKFke0H7bmj4zrXkXKiph86fc+QgPCxVgx0kPg7YJ2h+wtiY2da0s4SAjq+JFQAdEcyZk3RB94HknN9Glz3V4Lc14K+QbyVjFk7V7rESJ+DNckfQoCURNp9Qzf9O4HHYVnfKrbfQqG7Fs+4SSG/reMHVIC21pjdVKhNxc4/aQl3qjfcX5I4UHquStX/q+L3ayOfCfJu27XPeYdYHcZctY/uT7UBjMQS91ti4gaSQ4t92MKyzhDjtJlRU5GaaBuT093fNGGoJi6fCFyJYEmWzqFzYwNfCVz2ZgQm0o4iNynDlQ1vSMYi08rlV01P5RCIp50bBDirDBaMK5WGvBAbJ7Wv3930zUf0XDPIG+LjtNYm675CbCp0bmJJ9mQYcluh60I4fxUo05KN1l0htG2zJlVdgJDzRBFfZLy/E1RfxTtWE+CbsNWH4CnPxcW+by3ehuj4xZ5YGxQJU0vG+RMJLUeBBP6VitmKxKhs49vPc/v6Ae65BH6oWykta2i5vvZ0+1KTv2kE1KmUuO5ruvER4Kdd661r79xL3tGta2P5ibSjaOI/p0OnEH9ubbQPDUR2b58Qvo1tIhF3NID/I7F/yHkL8nF9NdRpS9Q6MKh3ej5Kg5pTnQFCr/fNi50DDRM/AxQZhpYM/aBwzkuOIuwBmYTI/ZZpvd3d8Xr7nL13LZpbIXdfZ7l/6G02k5cNBUzqBnBVMmbrImTZrCnxNucwMWQGyBEF2FvEVC4Vz96nklSnRRhdW5InAi2L3xzim9s/K2BDnkuKmyaynD6nphrtR4oTUPyqRJtzGUTOBVhXvJTNrBQ8Ia51VCl/H+NXcMCgzmxULGMHEMdQMFUzQVXgMGxSILEWgjYIvpOM2vpLtDV5VdUBgsJEZR8bvnuB7+Mrghwlb/gabhSxeSLyGn1eL1RNXPhmh2v9Z16BNbLNS7KTDcO4vDeRpwgrNr9EBO9gW2t46yekI1DBeQjLVbi0+2cKfVWvPjCPJcVNITopvCAVi6grmtroZwgk0t7poH+1pvLfHrQE6wjjwhENxi90JyZuanumtnNbl94yqhLA4McrgPwgGbNUU7W8x9QFHOgMcvcRQ3bxDX+4ANMAUWyH/WGo6oR/wcCjNK0rqr0aquoDhNwTpZKMMs5nQeNUEY7TlJBXkYe3N2N4CYl5BriSIovcIdaCObv2zdqYSGdnAaJaJuvY5xeSMfszFQGlp3f7PiJyvW6GRYDtEJlczV8BldqjMOtNZJwDQM4GRO/pAfAoLU5LjYz8p1J4JNLOCwDGaNBPiMxORq14X7IVAV5knfs53zf2ALEL4Z8gAvXf/eKDrsd/pgXGY574t85qsP/dH5Kcdfxw9PWsaPt39RDaHZ66b/8mBMdoipq12Z+HYAfAfwk+mSNjEuNva7utv2wqG/a0DHfupqs6Kx6bh9yCp9Dn5FRTZE7BCwNcEE9nJwlylLK7Byj2w6IUp4Uhd3HFilNTB4/UWsqpzYea4A8h0FMC6Knk4BMBaiyR48uAoSjIC/rCDnq7Ehm3GWQqaLm5n0TgAYE1ZVNVWaoXQnem+2CBHASY2wqoWrerjwqNmOvwsk+Z7xL8vQHjnvqs+ZewsSH2af0WJvSrAGGDn4kMhwm8sSS/0/uF2R/99AkuEjGeF8L14D20LhuZtyFYSGSyzaBcBkDVCQc+BsOq/1lMVB5CxcaUhWt28CMD1YvvGE2nJBt8WwnwJ2FlO6vYBlSp4t6WyJcA+KRGF0hg/oCI1fzL4eVNTPyoT72cCJra1MsKAhelYlbuY2Hco7RGDsseLzSPpvgWKKr5njq96EcnBe8jrPb4r6D/s4gZWTCjQV7W+DxVRHR//OF8H8iWxV1NhLkbLGkFObwiCJdNKVcAspREp+TKAPlpSO56Ifg/TPK5ZGMkFDznvVcNcwHsqRVq4gmanJZqiDyjVU9NuFYE4u3Zz4sn10PwJa2KyEWE/e1Uo1TsamFj/xJp5/ner/eg3fZzpxOCFyhyiBCDIDKy/79v8aoIJvme/1qqqW5x0KCGRV6/DhA2gHzy4vUjPRh70TRSAmwXFvA12eED6ADEAKiFltizrQNmjxAtjWYKxoSUeMb5mUAUWVPwVNIfGNRN4kcjYtZ1lUg2KxiX2oKPIZBLbk2754jg/wAEn9X/gcYugjNTUfu7YbmHntTufMnyFf27ltEBEQ+k6s8Q/AeJFpOLFtpBkcmG7z7f2li/tGgpVbJwqwgQ1F6ol0M6g8E2nWaIqHauA6pkj0Jnpj3IGjTjk7IuLIaNX8jI4IiX1pqL0HPfuh4iLamodXdYfK/ZkT8C8Yx7IshW/X/78nJn1oyFiSlv6koOdNa6RZdM549yv53Z5dO7wJW6VCyKzq3lI2GrCRA2fmzVD8oQ272MApV9q8p/rH77WAfsGIF/DoH15UrnH3zUrURb9gsQeUL7XpJ3uaZ94Zx+eN8Y8KMSKnFTXlw/3IuYVwrlRM2GubD4peTIyNOa9RQk/rtp1nXA/YcA+xa0cOue7AJQCYiz12btH4Qp4CvXtmyVAcIGcI8k63Zpd24RiuJPiGo+oi7XnurWMy4ZtR4Py9Hpxs4m0u7fAR6gGwCQLZ2OPXdrfGFox1aDgtwJk+2orn+tGsR/VOQ/kjH7wDLoKUyFYp9txzjS/UthC7fK2Sr5Wp1IPrMK9ul/rHAydiV3YKsOEDYAP306jZcmeD8HqBLd9kb/z1Mo9plzfHh7zIrVq7bLoRs9HR9dlUmstx88sZbCQ1NR++kwBkqh25hKGpTLUcEXBO6fAAzSbMqrw+dau0+fLioPKHSjOd3VYMBcBMAOnXGhMEjeBficQNo6njVPn3eCeKEwq4JG1AKEjcBXrGNZ3z3TEPk8yf00l0FVcNuLVr2WxCUCvmVYxltet/Pf1Oj6l8L0I5lo906H72tnPhTIHN8yp+puc130TtUW5hDoKfFzbgNkonZIDOOMZIP5S+168lWg+hss7Rpmwv60eP4uhOwkAkWNrjtQytfCUMwj8ZoI/gniGa7t/EXYWzCXE7RagLAJtE9eyl083zsCvr8/BEf1IxrQAJ8tWUn4fxPIiyQI4WoD8qyzznp+zt59szwGaMiHRKn+E7C8GSR13zVDxDi3NWpep8uXmtzSEUhknHNBXFO6pC1LIHm34dtTS+lLUKqNk55bNUgiO+5lWPwsKDuKKAZVNhHGl0QnmViphldsPVeA+IMYxlN+d9eDqTGDV1XMlJAqrgUIW9iYHiKeQf9DQ0aI7323DLSsIX1M8jBL5F2QiyGyRFS2v8r69/3/GAb/PjNap6heyzMU7Xba2Q+Q30M0d/okOgzL+szMUfJSeZyraSkEgfiy9SPEtVT9v5Zy3/dtIVZ7Fo+aPdJ+ppynaS1L2UTXGSeGkeMkoarMYq7Drboq3bYQrLaqueRyAjeKGMuN7Nq/zRyz7dtblf8FOFsLEPIAS7GDDR/mfkHo7QAY3xXIYXks2+qnUOQ1+Fwhgtd7wJB3xJAn4TkPd/yn7iVdd3xnvMHB69e43wXwU/2bIA8lY9YR+vXUNBSKQDztPCTA4YWuK2L+DwdkrZ/pothVuTXtL3Z9yqozjwCMA/FB46WdCIwUYNcibN7qlojgzz69mwzDfGfpy9ZTjx0sqkqhNraAQC1AKPDxmNTO3S26n4KPb4jgLNZKJAtB0AHUSYO/GiLqlEFRlboCPOhlef/sPe3/BPUFFn+xK2bY5tUEjivEwMLnigP6v0w2Rr5f+NraCl0IJNqcmyByOkC9CXki9xkwz58ZlUwgvpAy+UVnHyNiHinwFYW4InQSkPUQ2ak3gVqvT4E4EhIhhEvg5zTwa8uwXqmd9hW2L7UAoTC8emaTMvVfGGBsh8Hr6R1rCC4GOaIYUbU16vUn60l2CSSbOyiFOASfNSHzTMP83YwGWVMoTuqr6+Wl/lT6/k36m8NIxhHzyDuC+pEo1Nna/A8hMDHTFbVp/RGgKl3WObJC4/u7x4wZxRDnjH+DgweuyR5lwBgPyH4A63KxQE8DqXrpYQatvaOL2kF5GSKXm8b63xr1gzpmDM2RnKmXS20UgEDt4SsArC1Nnbyoq9G0jLmA7NVL1tPfKUcDQq4gMesI/JE+f0fYf67vwBsbVrd1gOPGwZ+uIowNLwKVj9DuXgriIt0vWnV82fFv66u6rk0KQmkrnjz+HppD9nUfIqG6uuochODyZIP1442ft+mAPPYYjMYhH/ywd+ywdoc6xz4YYnxTBEcCGKjTsK1UtiotVVcGCz3XO3H2HvVtWykOgbpdCxAChbNHWC5zGnImwTphLlGuv7U31YBa8SIFcH1gAVSTKsFf4bjvN0+RiL0/fP9iQPQ2cwLWgbh52avWD2p3m8XvZSkrezoJuleAOEP3jzCBhaR/uXj++z1JDNsa6fvGwRD/MAMYW7t+LGU381rriMhbBLopvCXVYF+V16rapLwRqAUIeUNV4ET19ZrJ7kHIhaA0ARgmgl22gmYmBQKleTqxFgKzTCyZT9Ln91NNtY6Pmnd1k+JznRp9UVdK+5dBvwoIPYjmCokyOBK0itwlYdBCP5Dni8jrIFeQbKfHK1KjIy/Urg/0AK5xH/UYXI1SVW0+DeebEHwFkE+C+AKkRlZSjXvZt828xzDt82vJUH0jFeSMKUs53PecqwE5IUi5NVkhQUByJ3T/BPgKYTwaMcx7i8lNCok3VWNGLUAo81bFl3GEOO5ECHYgsLcABwG5L9za6A8ICNaDuJGuf5ch7mqrc+CbM8aK0x9cC5sPKt+gfl/sWOdjR1fciSI4G6x1aQ3bPhVtj8Aj5DEhn4eBdw1adwZWLVK0UVvXwlqAUMH9jrdl9zHEHAfxd6CPw2Dg82DhwYLmI70KIlStqvkSIUuEXA3ImzCQ3aQnKq1KsI4+1ojwHYjxNn2+Dd96N0u8N4DvdZjr0x0zxo7tlwHG1AULbG9AbMh62WZIRLANDHc7imwj9HeAie3gczsxjMGbvZYjTAF3ylEIQ0YTHFmtT0zN7l4EVFDg819iyMMg3xbf/ktrkzxXw6cyCNQChMrg/iGtZ6/ggDVZjIHvjfJBRXwyGcDoWr5CCDZHvwmqc9x6QNYSXCvkWoqsE+bKshRXRJcICm8a4/ugICtidPtUAQodIVyYcODDgWwUtBB+7t82GhRYEHxQiUNECD8iNCwqbgExLEMQIX2ViBuBUXjRDnuC4XqQAygYIORAiNRTZJCQgwgMFEEduJEd+vejpqHcCAh8+EwD0ioiy13fX17fYb8wY6ysK7cpNX0fRqAWIITsiZi0ioPk3ez/b+9NwKSqru3xtc+9t7qhmRQcUZmqukGixinGRBONmqjxb/xL8L1IgKrG4DzGIYpiqzjFCedIoKsA0WgbfeYlGqOJ+uIcHBO0u6sacB4AB5puuuvee/bvuwUYNSBV1efcquo+5/vyJe9xztp7r327atW55+w9xiYxCIJGMPEF4FzpVDMMA4UyEOxRBOIi+O/gP8Fm04b//XnHQSYwydy/fT5Y5I59ffHzIVAAG/4T/P83/O/gS75wdVBoJGZ+r2OAwW3E4nKyOA2P290uJ1PKPi69jmAFARmBoIBEXRDTmZ2u1rVbO5box2zvLMEzCAi6TJphGDAMGAYqjgEmvEhMlwnylnSx7Mpm+33UND4okGZGOTJgBEI5ZmUjPjEzHQ/YVRmIdul9CwJXEvBtc8CxQhJo3DQM9E0GJK+rUXLeQNjPdkch7wjKq5uqhhXxNBiBUBFp2rST8bT3DoGHV3gYxn3DgGGglzHAoHdTMXuHXhZWnwrHCIQKTndQOW7kcO8tImxXwWEY1w0DhoFeyAAz3u+I2Ts2ERV+yLYX8lGJIRmBUIlZW+9zcE2SSDwKcNDlzQzDgGHAMFBODKz0LfugBaPptXJyyviSPwNGIOTPVdnNjGeytxOLxLoucGYYBgwDhoGyYqCbQPMaY/bJZeWVcSZvBoxAyJuq8ptYn3afZ3OrofwSYzwyDBgGcgwQ8EJjzNnH0FGZDBiBUJl5w8QlSyIDIrXPANhTfQj0GYC7APwI4NHq8Q2iYcAwUBYMEL3JvnyMBE0EMEi1Twx+MfKZs68pN66a2XDwjEAIh2flVhLNa3/AljWXQKrLyzIx/ibd7p+LSNUoSBriEwSB9yDiiQQaZ9rYKk+nATQMhMGAD3ALJN/HghcLaXtsWZ+Rh+Vse3eCcYDqRozMvAxE9amY80QYARobahkwAkEtn6GhJVqzd4BoKgC15w8Ivu/LiQvqqh74dzBM9c0YANG9FQnq7weFem1rpABPZeAwAP1DC9wYMgwYBvJlIOiA+GeQXMAelloO2GNe66FjxaLolu1fbJFc3+pNYIF7wKy6cVw3EyVTUfvEfJ0288qHASMQyicXBXkST7sPEHBUQYvymEyAt1PU7tdA9KXa/F9dmuukV4dqfwgi/daAvAi2sOAeyoxpAO0SSIg8zJkphgHDgBoGfBBeh89zpJAP29mqT9YOAFufItvVgq6mY77+qmHQOMsbvFunjt1BBv4nFXP+fzVhGpQwGTACIUy2FdlqaGDx5iTvfgA/UQT5RZhsMuYo2ZWY9NyqQc7QQccBmExA3XojwTNnBR9ElDvDZIZhwDDwdQwwgr5buWZaQT2BDT0zmsHid/4nYt6CfWiVCgYTaa8b4IgKrK9gPDhikX10QwN93v9Dgw0DqYEB8wGtgVTdkFOb3e8KC7cA+KZyW4THklHnEOW46wHjS3hbRNzDCXwMg0ZRrg2gJCbqTxKDQOhnmv/oYt/gljkDQcustSC0A9wBCGZICdBSAv0+C+vPi2L0jq4Y4uns4wQKziGoHi8T7JMbY/SsamCDp5cBIxD08qsFPZFxZ0DiPBAGajBwQDLmPKkBd5OQQUXIEdt5+wgbh4JztzJyZxoYXCWItmTG1gCGhOmTsWUY0MzApwBWgPljEHXlbBF1APwSM/46Mmo/tbnXfKr9SzS7P4CFv6rGBbCagatTMecKDdgGUiMDRiBoJFcXdDzt3UJgLcVHkjGnbJ6JY1/7dIuqSM3usLEvMY3bwCcDVUS8HYOGgzkoM63klYiufBncPstAFuAPAXoboPcI6N7AhM/8hgU87/W3X16wg5pXBCpYTqTdL7X9VoG5TuzTramYfYoqPIMTDgNl82UQTriVbyX4tT1quHsLKGjuqHgw3GSto+MdpFJHJ7/KNdYgN0ZSjAM4BkbN5waYtwTRSDCPYNAOhNwrCzMMA7oY6Abo3fXX+ZYS8ScbDBFjrQS3SeBf3Om0Ltwt2CEo75FIu0HrZUe1l0z0m44x1immL4NqZvXiGYGgl1/l6FPe6Kq1HOsGMA5XDk54JBl1DlWOGyJgfBkPEVl3BJHYQbIczuvONKwbxNXENIqFiIJljIIdCED1ta4QozWmQmAg+EX9PoA0M7eBrDaw/8Uv+m4i8T5Ja7nsxJup3Sl4dVCxY2pr9lFBdLDqAJjxJ0/4Z9wZrc6oxjZ4+hgwAkEft1qQ6zPZKcx0NYBtNRg4NBlzHtGAWxaQwVWubL+xQ1HtbEUstmJJQ4h8scE5QZbN4B0lUx2Bg1caYwBsUxbOGyf0MED0AZiXgjktBaUtpuUM//NXAcQWS3irBYuPPHgrV4h+Kx+O0ef/rsep0qHWZ7oOY7Ye0uDBe4A8LxmrulMDtoHUxIARCJqI1QUbT7vnERAc9vn8i02VLaqyhzfuRO+pwqs0nOD6aNsJ6GetxUDZ1T3IsUUNg6qZeE+wuNh0zay0jG7CX8ZKMF9Cgl4kcJfryY7qflXtXhfWtL/W1Nl0zDF9tj3xlJbO4ZZw1N+UIPjMmJGKOcGPGzMqhAEjECokURvcjLe4F5DA5Trctix727mj6UMd2JWMeWqaqzogz2TIKys5DuP7OgYIOL8G9g039+KdgGJzfdxS3sb3vQ+KXf9161hiRqrO3GTQwa0uTCMQdDGrAXf6Yu6fHexdRMCvNMC/IrKdB80bP/hjDdgVDzlxyUcDBkSGXAlQKCexiSi10xhrWkDckuA7LYMtqxnDLPaGkaAtGRgKpqEgOZSIhgByEEsaBIFBxBjAoMGUuy7K/cDoD1J88IwRFNzuBGgtA50E/owJayCxmgQH19pWg+kTMD6G5FVkiVUs+WOf7JVdhJWI4uPx64v+vNXmz2PmeBgPCTPd7K+1zq+EA4Nh8PFVG9OW8JayynsCjF002L9yzQr7sqbv0FoN2AZSAwNGIGggVRfk1Ex2T5J0AxH2V22DhDizRorbza+qTTObSHf9CLCuAbR8eH7VsATh2gFsz+ytOQl2ZtaQdykYZ+t4ZbaRTP5TWjh7/mjnL6r/fnoLXm63jOQpzPJaDTE9CfBZyVjkJQ3YBlIDA0YgaCBVF2Sipfu/QGIe6AvX+pQZ4z3NH+7mycwVqWI6G2D9hZuI3pbSP29ULNIUdtGczTPRsxkNzPab6exECOtqMO/YM7R8VtOnIL42GXW0vJ7Lx4NKmZNIZ/cA6EUN/rZLyOPmx6ru1YBtIDUwYASCBlJ1QSZaslMhKKUH3wiEfHlNZNzZzJgeSo0Fxh+Z5TmpuqrmfP2rhHn1S7mOPe9aEI7Q7S8Da4kwJxl1ztBtqzfgaxQIgOR4si4yvzfw1BdiMAKhYrLMVN/qTg1ap2pweaUg+8B5UfqXBuxeBzkp3blDBM59AL617syb5kE0B2xdmIzRCs2WQoFPpHkrkDsLTNNDMMjM+IdL9gSdfQxCiCM0E9My/A3J3hMIzrkoHsycSNVGNP3IUeysgQvhw82QrISB+mYeyJY8E5CXKAH8AggDTcK3z2gc23evOBbKaSLt/QTguxFapUa+zqlxZs7ZnjoL9bWc5k9/j/u7nblzB78Mya+1LOWxqbqq/wnJXsWbqX+Lt5dd3k1EmKA6GCYxU3hiduNYaleNbfDUM6D/1496n/skYryleyxZ4lYwfqCeAP7FmqyzoGk8BWVWzciTgUQmOxWs65XPfzixRrKcPr+2KhAlFeFn1hsAACAASURBVDumtnb/TJCYA2BAGEEQ8dTGaGRBGLZ6i43D0umqbWjUFGIO8qR0BI2ohG2f3DiaWpQCGzAtDBiBoIVW9aCJtPt9AH/U8cFKoJ80xuw/qPe6dyM2MIvlaX82EZ8aRqRBvX8iZ59KfdUwOcNbW9J9johGhcTXzSNjzhkNRDIMe73JRn3aO5LBD6qPidqFxUfMG+38n3psg6iaASMQVDOqCa++1T2YCY/qgCf4P2mMVRuBUAS5U1p4uCX8FwDevojlxSxpTsaczztbFgNQqjWJ1mwziOrCsM+gd6W09llQR++GYa+32ahPdx3JsDQIhKAlCg5prHUe622c9cZ4jECokKxqEwhEHwHWz5JR+luFUFFebjLT1DZ3D8G0OETHXk7GnD1CtNdjU4m0G9x9373HQHkCSOK95o9xXgKRlvbFebpRsdOmtbkHSYnfARimOggjEFQzqg/PCAR93CpDzrV43sE/CuAmZaAbgJgeEMI7d57pslY0tRPvZav/7t0/FrCCmw3KW+VuxLFuZk4tf/fpU5448ECvaMdDWHjA44/bo3bc/xasq5RYFYJJl0ETOl62Hmo6hvpsT4We8hxv64qRzBUF+0lPsb663vflxLV1kQdM62fVzKrHMwJBPafKEae9zVvKbv8KMB+vGpwgZgyuFjfcsKMpf9oTbqcv5+1czw8aOh0HDqOFNL9FzGftFIs8UK7v2Nef0TgKJG8g0E494TfPtT4z/dbzui+9c+eaoEWzGUUyEJR1dwd5Z4FwWZEQm1zGzL+xXGfGvPFkyrqrJlcxnhEIignVARd/Y+1Isu2gBauGd898UjIWuV2H330Ns77N3Y99vhlE3wwp9ueY+cRUbeSVkOwVZCbemv2mILqNgX0LWljkZAJehsBpjWOcp4qEMMu+wEAinT0RoNs0kPI6e96PU+P6LdeAbSAVMmAEgkIydUHFl/FY8r0lYPUtngEjEFTmLaiPQMS/ZkatStyvwXoEsM9Kxuj1kOzlZSaR5p0B73oAP8prQY8ncRoQ5yRjtpaDdT12rwIBNAoEybY9PjWKelV10ApM8WZdNgJhsxSVfsJxrd3jfBLqvwAYHRB8cjJqSp+qyvJEZqsm7Z5EJGYAvI0q3E3hMMAEvpfYuaCxlpbqtpcPfn0rj2ZyrwDomFAqTQIfgsSsNWPE7ea9dj4Zym9OIuNNBfOtgPreLxbLnefWVr2RnydmVqkYMAKhVMwXYFeXQGDCa+ThzORYx9xgKCAfm5v689c7trOdyI3EOEp5m+WNGQ+EHuE6kbVvLPV73Vy74Ih3OoHOYnAYxZCyAP0PZ63TU+Ppg83lxvx7/gwkMu4PwDwbIOWtn41AyD8PpZxpBEIp2c/D9rqDXt5BRFDeopaIfueSdd7CMfRWHq6YKQUwEH+jexfY4l4CxhawrPipjPeY/BNGRqseLlXnx3UdGv1DAb4DhFDqQjDQbJGcOC9aZfqIFP/0bHTltKU8Qko/6Lb5X4qh4bN/yOi7qv7W0GCKWKnmViWeEQgq2dSANXEJRwZGvAsYuFg1PAFX7xS1LyzVF4rqeMoNb2qax4ug6Q2pv0u+0ViZl1sR5wdzR9KyUnBR39o1miH+CqKRodhnrJRkHzA/RktCsdfHjKwTfN7lIJyrIfSL12Rbr2oaP96Ud9dAripIIxBUMakJJ3fdaLAX3GAISi2rHYRZyahzkVpQg/ZFBqa0eIdZgoP8hTVWsG3vlBpFXWEZDOzEl3E1eV6wE7VVWHZ9SYcvqLMfDsteX7STyLiXgXGhhtgfdz6zj5izV2U3H9PAS1lBGoFQVun4T2cmpXmQA+9jgoa79UYghJL9+rR7H0N9Z7xNOc/A6mTUHkIhVRFkZqrPeJ8AGBwKoYERxgPJWufo0Oz1UUPaBALDy9LqoYtiQ1f3UWorImwjEMo8TYFAiMD7TIObPkvMStU5DRqwDeQXGWCmRMZtBSgaIjF/8zrtIxfuRh06bU7+gGusNe6DxHSQTjtfppPbUjEnZsoo62c8nnYbiHChjuJfWdiDF8XICAT9aSzaghEIRVMXzkJtAoHobWY5IxWLLAwnkr5tJehkaLP7BEAail1tlNtuZlwOx75G1+uG9a8VgvfTF4RURjkI9A2P7AMWRoMeImboZqA+402Rkq8gwnDVtoxAUM2oejwjENRzqhRRm0AAnvUln7GgLvKCUocN2EYZCLbhp7a6e1sCdwE0JgyaiOh9yTh9ZNT6vepyzLnbNRl/giDcyMzbhREPwG1COsfOrcU/wnp9Ek5c5Wsl0ZrdB0SzAXxbtZdGIKhmVD2eEQjqOVWKOC3DUcleWilo8AqX8XvLtaeX+t686rjKGe+kJTyg05HTiOSlAAaF4itzC4hOT8acR1Taizd3HUpCzA6rfTOA1cxiZn9XzLttPK1RGYvB2jQDU97gocL27yDwBNU8EdtjyqW4l+rYegueEQhlnsl4S3YyCVqg2s2gG2Cq1qnPdWc3IzQGEhneEQhOhtNkQEfp7I2G8ioJnN04xnlMRaD1be7BLHEtgN1U4OWBIcG0EMK6KBmlt/OYb6aoYoCZ4m1+I63rxql0MMtJqdqqu5SCGjClDBiBoJRO9WD16eytDDpJPTIlkzG7Xj2uQdwcA1PaumotaV8D8JGbm6vq3wn0gk981vyo83RPMKdl3O9KiRtA2LsnOIWsZcb/Sss/e8GY6tZC1pm5ahhIpL1GgBNq0L6AQrgpGXVOV45rAJUxYASCMir1ACVa3Rf0fBgbgaAnY/mhTk13jxcQQZ179fUtNu6Cz0SP+tI/a2GRNfAnt3aPs0ncAOBg6Lh2u3G/n5SQJ8+PVZliSPk9WspnaRMIwHPJmBNKp0/lpPQRQCMQyjzRibQbFLypUu+mEQjqOc0fsaGBxbJj/cMI8kaicA4tAgj6FswD1l6cjA1ckb+3QCLNWzH5lxJzsOsUKWRtsXMZ3MZCnD5qtBWUj5bF4ph1PWNAm0AgdCWjTr+eeWdW62TACASd7CrATqRdHWcEAtFxazLmnK3ARQNRJAPr+2xcR4Kmg7l/kTCFLvOZ+ZQO12lsGk95lbnNlft2ZD2TvCW0nQOiTmaeMzJq/9KIg0JTrHZ+Iu0GbbuD15zKf6gkY475DlKbLqVoJjlK6VQPpkkgfAjBlyTHRG5X77FBLJSBeNp9PHjVQEBof48MHJiKOU9s3lemyc1dB9qW/dfNz1U2I+hi/X/JWOQAZYgGqGgG6tPZk5nERWD17cuNQCg6LaEsDO0DKZRoeqERHQKBwa0EOk311bdeSH9oISUy7gvg8A7+BYEJ2HvMi9HLXxdkIs17AN6LoRERGCL8Ixl1vhWqTWNskwxMaek6zBbWbAZqVdNkBIJqRtXiGYGglk/laDoEAoDFLOXkVF1Vs3KHDWBRDEy8d0lk4O61f2cgvC9GhieAg+bVOv+3Maentbrfk8BfQbCLCqqIRcFti/astX++rz+KMGGWFMjAca08zhfeAjD2KnDpZqcbgbBZiko6wQiEktL/9canL17suIN3y+s9cYFhPEG+fWTjWGovcJ2ZrpGBqUu6x4uIuA/AWI1mvgq9goimNka/3BWxPuMdxszzw+zOyOBmBv/U3FgIMft5mMpVc2X3DyBSfuNm2Tu288SB5OXhhplSAgaMQCgB6fmanJTu3CECR3lhGAb+koo5P8rXDzMvHAYamO232txjpaTriTA0HKtgIqQBOmODSIi3eYeTlLPXN5cK5TOCgVUAnTkyat3dQOYLI6Tc520mnvYeIfAP816Q50S27e1So+iDPKebaSEzEMoff8gx9Rpz8RZ3fxLY6PZvT4I0AqEn7OldW7+CB/Kn3plgXBTa1j7BB2MxEc5nD8QWriTCnjo6+G2MPWJ4bOGyrFw927T/1ft8FYseT7uPEKBcIBDs7zTG6Nli/TLr9DJgBIJefnuEHm/xJpNg9WWWzQ5Cj/Kie/GUd3ioWOtdQMBZum19AT94lfWv9f/3N8KqdRDYI+D6tXLtlXfXDVoZYrzGVAEM6BIILGhSaoxtyi0XkIswpxqBECbbBdqKt3RfTEI0FLhss9PNDsJmKSr5hOktPCxL7mVEdEKIzmwoRiTCs0m3O7Jz5hwjDsKjvAhLugQCCBclo86sIlwyS0JgwAiEEEgu1kR92pvL4GnFrt/UOiMQVDOqB6/+Ld6eu7ybQThaj4USoxLu9337tAV19G6JPTHmN8OAPoFAc5JR+3iTgPJkwAiE8sxLzqtEm/sHSPx/ql00AkE1o/rw6tuyezHTbQD2AodXSElfRLl3CkF10MVEfFLjmMhirbYMuBIGdAkEJnowFbWPUuKkAVHOgBEIyilVB1ifzj7PIOX34o1AUJejMJDimWycmIJt2OFh2AvBxrtMdGEqaqdCsGVMKGBAl0AA4dlk1PmOAhcNhAYGjEDQQKoqyETGWwbmkarw1uMwET3UGLWPUIxr4DQykMi4l4FzhxbD6tmgK5pOMG5I1joX6jJgcNUzkMh4fwLzYevOlKoc3JaMRaIqEQ2WOgYUJ1udYwYp6KDnfgJgiGIuXALd2xizf64Y18BpZiCR9m4G+BTNZrTCE9HNjVH7NK1GDLhyBhIZ7y5Inqj+6i19nIzZYdX8UM5Lbwc0AqGMM5xIu58BGKTYxS4iSjVG7RMV4xq4EBhIpLPXBwWFQjClwQTfkIxFwry6qSGGvgmZyHh3gHmqho6Oq5MxZ3DfZLX8ozYCoYxzpEUgEDqZMScVcyr0S6aMExaCa+tbRF9FhHNCMKfMBDOuGRmzf2VaNyujNFSgRMa9kRm/IKCfYsNGICgmVCWcEQgq2VSMpUMgELBGQt6SilWdr9hdAxcSA1Pe4KHC9i8h8MkhmeyRGQLd5nnWzAXjaFWPgMzikjGQyLhXQ+JkEGoUO2EEgmJCVcIZgaCSTcVYOgQCgHaGuC4Vsy5R7K6BC4kBZqbpSxHzpX8FgyeEZLY4M4z7SfoXzKuraiWi4HqjGRXIQCLtBp8Xwa7jQMXuG4GgmFCVcEYgqGRTMZYegUCrIfi65BjnUsXuGrgQGZh4L1sD9/T2Dbbuwfh2iKYLMfU8CZzd/qL9bNMx5Bey0MwtLwbq024Dryv9bQRCeaVGqzdGIGilt2fg+gQCXZccYxmB0LP0lH41MyUy2Qkg61owjyi9Q//2gMFvEcQvk1Hr9zA7B+WUmqJ8SbR0XwIhzA5CUexV7iIjEMo4d3oEAtpJ4LrGMY55xVDGuS/EtfrW7KlMNBPAsELWaZvLWAkhLklGrVu02TDAoTIQb+2+lEicYXYQQqW95MaMQCh5CjbtgBaBwFgD4EZTqKaME1+Ea4k2dyZkbgu4tFfGiD6VzDfMj5lXWEWksWyXJNrcKyBxKoABip00ZxAUE6oSzggElWwqxtIiEIBOAHckY465j644X6WGS2TcWZA4Q8NJ8/xCY3RAYHYyaqok5kdY5cxKtGZvZCJzzbFyUqbEUyMQlNCoB0SLQCDqgpQLkrUR00FNT9pKh5o7k+C3Alyi0rWUSUatWnPmoHSPgC7LibT3W4Anm0JJuhguT1wjEMozLzmv4mn3YwK2UOyiC1BTMmZPUoxr4ErIQHCroWY3tx6CrtbwzOQVGQOfgPi8jjFOYxOZWwt5kVYhkxLp7O/ANEF9qWWsSsac8jg7UyG5CNNNIxDCZLtAW/HW7DIi0tCsCQ81Rh3TrKnAfJTr9OmL2XGHuMeDKWiAtE2J/fyQmS/vcNN3NI0fny2xL8a8Iga0NWuiYNfJjily08AoZsAIBMWEqoRLpN1nAOyrEjPAMu2eVTNaOrz4Mq6G555AoF+VgTjYQMSHDL6qY8WHdzR9Z8e1pWPHWFbFgK52z5Lx1PxaZ39VfhoctQwYgaCWT6VoibTbBOCnSkGNQFBNZ8nwJn/ANU67dzyDZgC8Zckc2ahh+pjBl/sD7TsWbksd5eWb8aZQBnQJBIDuScbs/y7UHzM/HAaMQAiH56KsxDPubGKcXtTir1lkdhBUMxo+Xn0zD4TlncxEF4O5OnwP8rAYHIhlvjQL+9ZFMVqdxwozpUwZ0CUQCLi+Meb8skzD7vNuGYFQxo9AoiV7JgRdr9pFIxBUMxou3rGv8RaRKu9cEgheK5T9YJZXZ6siV981gj4pe2eNgxtlQJdAgM+nJ8dGbjK0lycDRiCUZ15yXsUz7qHEeFi1i0YgqGY0PLwpLTxcWO7lxDQ1PKsKLBEtsDg7Y26s/zsK0AxEyAzoEghs4Yep0c6jIYdjzOXJgBEIeRJVimnTlvII6XvLNdh+dETUPrSBSGrANpCaGJiWzu4umW4EoTIPdRGeEsynzYtFXtZEkYHVwMBEZmtA2vszCAcrhyd7p2SU3laOawCVMGAEghIa9YAEd9sH7O55ytEZT4Hso5MxWqEc2wBqYSDe6h5C4Nkg2lmLgbBAmd8gi05rHOM8FpZJY6dnDBy3lLfxpXcfGPv1DOk/V4+I2pb5oaKaVXV4RiCo41ILUiLtsnpg/heBpjfGnGfVYxtE1QzEW72jQfLXBBoNoNL/ZhmgNmacl6q171fNlcFTz0B9i7sfC9wO4Buq0ZMxp9KfZ9WUlBWeSU5ZpeM/ndEiEBjvSeKZ82OReWUefp92r6GBxfKfZY8hostBOXHQewbzUmaekayN3EOmHXRZ5zWeyf4Cki4hwnaqHTUCQTWjavGMQFDLp3I0LQIB6Gbg9lTMCfq7m1GGDJya5qoO8v8LjAYGjypDF3vsEoGWSZaXwnF+lxpFXT0GNABaGAiuW4NxIgER1QaMQFDNqFo8IxDU8qkcLZ52JenYVmZOJmsj9codNoA9ZiD+8idDMGBAvSA6m5mV/2rrsYNqAT5g4JqIsOfNGUOfqYU2aCoYSKSzjQAlVGB9BUMmY46lAddAKmLACARFROqCSWTcF8DYWz0+JZMx2wgE9cT2CDGR5q0A9yqAjgEwoEdglbN4DRPf56P7vIXRgR9Vjtt9w9NE2msEWIdAeC4Zc5SXku8bWQknSiMQwuG5aCuJVncWCDOKBtjkQiMQ1HPaM8SgOiJb3nMAKvumQvE0NJNvf6txLLUXD2FWqmZAo0C4NBlzLlbtr8FTx4ARCOq41IKUeMP9Pmw8oQH8EQn/5Pmx6jYN2AayEAaYqb6lczu2IhkA/QpZqmwuw2XCawEeMXYFwVGGXQAQA2uFn4021vV/H+bwYgHM6Zkaf70rBse6hYAfqrZAAvs3jnGeUo1r8NQxYASCOi61IE1K86AIPPXvZomWM3B+Kmr/TovjBjQvBoJujDLr7moJehJAqXoqdDHoT9L3LxVOhOF7F5Ogw8FcGrECdAlpf391f/yzaUcy3SDzepL0TIq3dh9LwroCzCNUW8jCHmx6dKhmVS2eEQhq+VSOpk0gABISs5J1ZotPedLyBDwuzTv40j0Ugq4EMCzPZaqnBeKgSXrerAXjqlsD8OBXo3DERQyaWELRspIlXUBW9s/JaH9TaU911vPES6TdSwBcCEDkuSTvaUYg5E1VySYagVAy6vMzvF4gfAxA/Wlfwqxk1LkoP0/MLJUMJNLZPRjiBIB/SsAWKrELwJLMPIe6vSuSu3z5SziR4R1Z+hcQ8XQdXw75+EiET5jp95Lkb+ZHIy/ms8bMUctAIuNeBs4JBLWD4WVp9dBFsaGmy6daZpWiGYGglE71YJNf5Rqrv/ssgXZRjU6g22xhXWCul6lm9uvwmKY2e98RNl0G5u9Cw93yfKNh4KpuaV93dx2t3Nia6S08zLW8M8A6Dsnm6yVcAM9Iwoz5Y+xnzLmEvHnr8cT4sk+GkDfwCoBP7DHYVwAYeMXvtPdbuBt1qMY2eOoYMAJBHZdakKYzO9lW7xwSuFy1AWb8w2ectbDOHBRSze3G8ILiR+0CB5EMtm1przBsbsoGkTi7ulvccdt4WvN1fkx/j/u7nd5JYFxTSn8BXiyEaOgvrcdujlF3aX3pG9bjLe7+JBC0m1f+rLLE+ZF2+7o5e1EgAM0oUwaMQCjTxHzuFjNNa3X3loKe1+BqF4NPTsUijRqwDeQXGAiuMEorO4NgTQA4Wlpy+CTns5Xz5+y1fWc+fkxfzP3dwe5UgG7LZ76+OdwGot+TZ88yVyH1sbwBOZ7O1hPoVh3nUFjY30qNxmKzI6Q/jz2xYARCT9gLae1xrd3jfBKv6zHHJyVjkaARixm6GGCmRMZ7iUBRBpe2+BHzCew48wstbRzctiBfTgHLO3TRlBcuowPgTDLm7G6+XPJirOhJiXT2RF2i0GK589zaqjeKds4sDIUBIxBCoblnRuIt3WOFEP9kwO4Z0kZWM89xPbfhzp1r3leObQDx89d5O8fx0iD0B5ewEyPBZ+bTOqLOHU1EfjGpmchs1WTc44noJrCGQ7P5OkVgMDpdNxszz22+pBU2r765Y3tpVTUQ+BeFrdz8bGJ4kuUuqbqq5s3PNjNKyYARCKVkP0/bkzPtW1vU70aS/N95Lsl7Wq4wjaQJjXX2w3kvMhM3y0Du3f0a7xQAM0Go2ewCfROC9sqfMcuGVG3kRhVmEq3Z00AUXH8bXNr209TB4CsiNfbsOdtTXq9LVMTfFzDqM95hzPg9oKMWBt0FWGckY7SiL3BZyTEagVAB2Qt+ufVP+0cJ4vv0uEsTR0St+xuIpB78voN6wOOP29EdDtjWhxe8rz9cy/XUfOkk+GB+E8C1ql8jrdt+Fr8E8cgS7yb4YHrYgnVi5h188MSB5OVLj5m3cQYamMXyTHYCQdyrgyNmOaEjFnmw2J0sHT4ZzI0zYARChTwZ9a3uwUx4VI+7dLtTY82cs/3Gr7vpsdn7UKe9zVv6Wf/bkHwOAQeUNMKcOMALIHljMlp1jw5f4mlvIoHPALBPSYXQuuCe9Nm/1ulX9cy8HSmoG2JGkQzkGoaRH1zDPb5IiK9dRoxDGmudx3RgG0y1DBiBoJZPbWj1aXdfZtwHwvYajKwli/dtHB15VQN2H4BkmpTG8Ah5pxJoclm0aGbc57nutQvH99dx++XznMZbsnuToHMB/LTkiSb6gCUvdMm9aVGs/7sAuOQ+VaAD9Ut5N/ZzTcOUl/5m4N2gOFgqFgnwzShzBoxAKPMEbXAvdw5BVl1IRKfqcFlKnlrV7txt7iUXxm7w+mdgq/9DWPgZg39e0oOIG1xn3Oh49tVzdqZQDp4GB9rYjpwLxumFsadlNhP4TpC4u32M9RezjV0Yx9MXs+MOdI+FoFRhK/OcTbgRbF9uzh/kyVeJpxmBUOIE5Guec1fl3ASB5uW7psB5r4ps5w/mjR9stmfzJY6Z4hn/FgJ/D8A38l2mcx4zZvpr7evDrlA3+QOusdZ4ZxHjUp3x5YvN4CWQeDJV65xirkPmyxowbQlv6Tve40TYNf9VBcwUVJ8cbaVMTgrgrIRTjUAoIfmFml7/zjcQCAMLXZvPfAn7G/NjtCSfuX19ztRW93sCOB0CPynpIb1/J6KLCTP9Dvu2sMXB57tcQVnwft5JIFxCpWpb/eUH0wfhQd/zblkwtt/jff2ZzSf+eBvvQtLLtf3WMFYz5HGpWFWTBmwDqYEBIxA0kKoLsr61azSTfSXAx+ixIV5Jxqzd9WD3EtRgJ6fNmw2mI9af4Ffe5a4Ipt4F8aXeAGfRwm1LW9t+3U6CfywxzwSwQxGxqF1CkMz0Jlj+MRlzTicicy7haxhOpN1XAOymNgkb0Pgey/fPnzu23zI9+AZVNQNGIKhmVCNecP3ozTbvAjAu02SGV/n24D+MpXZN+BUNO7nF3c+y0ECM/QBUlUkwzzPjog7XfrJpPGXLwaeJSzjS3/b2J8IsIny7HHwCEPRveIYt++LUaPp7mfhUVm4c2cwDh1reZ9pqWxAuGjHGvsJcpy6rtH+tM0YgVE6ucp4mMtnTALoSjP5aXGd8nKx1hmrBrkRQZpr4LKprtpanEMurtX14Fs5NUJfxYe7unpYaP+CDwpfrX/Gzf/I2Vf38ecQc1IMoj8+aoAoj8Ks1VfbNTTugy7wL//zXPcXT3iqNrcc7mMT5qah1s/4nz1hQxUB5/NGqiqYP4MSX8bbkeTcBmKgpXN+HvfeCGL2sCb9iYCcu4QEDq7y9mRF8qI0vI8ezIPrjiDHWxHL/NbZu18tvAvMRpWxt/dXcBYcYBdGp7d32P5o209GyjPKuzZWpGd5TsBdcibX0GOF7Lcs5be5o+lAPvkHVwYARCDpY1YxZn3avY+A06OjNkPOd33aks8ecur5ZOCn4Unsr4+3DjB+DMENzOguCZ+AjED+UikYSBS0s8eREq9fIxD8mYOsSu/Jl84RZbNl/GjkSL5S72NLF2/QWHuYKL/hBoOfMCMMjwk2NMeeXumIwuHoYMAJBD69aUeMt3UeREL8GENNiiNHBwNWpWkfXWQctbqsAjbdl92bJtQIiaIEdUYGpCoMITzPzItVlk1X5tzmceDp7EoEmAfjO5uaG+u9E3ZL9aSwpvaAu8kKotsvAWLzVvYiA83T1DCFCK5jOaYzZfyiDcI0LBTBgBEIBZJXL1KA4z4CMdz+AI3X5xKBlknDygmjfaOJU/yaPlt3u90B0IgF76ttqLS5jRPQ7Sf4VqTFV/ywOoTxWTWnu3tW2rfOZ1Tce62GEQWnqlwC+XQj593nR6kwP8SpiedCUSTJuJfAojQ7/YU3UPtoUrdLIsCZoIxA0EasbNpHOngmIGQDrOlAYHIJ7FsynJmORl3THUyr8oH+C7PIPZ/AEAN/XeEiryBCpAywXORGnYc7IcCojFulo3sumL+ft3KzbAKKfA5oO2+btzX9M/BSEJ8F0n6i2HurNfR0S6eweAG4BKLhpouu7YBWDZ6VikdnFp8SsLBUDuh6KUsXTZ+xOfrV9a6tf1aNEpKfiWY7J3JfTvC7uuuzuukErexO5p6a5ag37h4CChjQBh7xT+cXHzUTWXCHEnb3tcNdxS3kbz/cmETANwM7l5M7ZnQAADG9JREFUxz29BfBrAM0dAOvPN8couCbZa8bPWnhYteVdBKZpAOtsR/4q0HVIMjbQtHauwKfHCIQKTNoGlxMZdxYYZ0Fr1TpaSZANNXDm9pYPyWlLs9+SPt0QNFUiIp1bq0U/XQx+gn260MKnrzWO3apX1qXI3RKJeLswcDmAA4smS+dCpuUgfs+XfGZvOZ+QE8fS/QWEuBjgYbroY2AtCNemok5QNMuMCmTACIQKTNoGl6e3fTzYlQObAWyrOYxPJcuT3nw30vTEgeRptqUNPih0ZAv8BkDwWkY3Z8XFsa5N81+sru7EDt+oWdHbT9YHN0Y+aMOwLt+bTxYOKZOy1f+ROyJ6n1l+LImOnx91ni4uuaVfdcDjbI8Ynp0oSNwGYIhmjz7Iwq5bFKPVmu0YeE0MGIGgidiwYBPp7G0AnajdHsNjKY8dWRd5oIEqSyTEM+6hxHwtQLUAHO1cFW+gG4QLnU/tG/taV82gi2D3wO7ThLCC3YRyqVK5sUy6ANIs6ZxUnf1Q8akOf2XD42wv38k/kny+BwRbuwdEtySjtpbus9p9NwZyDBiB0AsehETG6wRzvzBCIYgzuyJi/l0j6JMw7BVjI9hCXSnbB1aj6iAIaxbA0WJwQlwjAXxSRfbOv4nSRyHaLTtTJ2R46272XgewBYBy6HOxaY4IafLowrXU+bdhYmB7Ob+CO/ZN3sLp6q4Xwro2pKSvTcYcPdVeQwrAmDECoVc8A4lW91wQgjLA4QzCc+zK6R1jI6+Xz9UlpvgbXSMEWcMk0cG5joJUXnUMNpGcoLLcK2y/c1Rq1KiucBJY3lbiy7gaXvZBImtXMJfnq6AvU5hlYKZN9mOehVWpUbS8XBgOrkTXNGd3Jlv8FsA+YfklLZw9f7RzXVj2jB09DJgdBD28hosadBjMeMH9+NDKARNjDRMlBPnN86JV/wo34H9bm9LSOZzgjCVB/Yn5HBD2L5UvBdoNegK8yqDrO6qt+5p2pLUFru/V0ye+zf0GdPgTYHFQfS/oLlgRn1UMfgaQV7GwOj3ptiyK9X+nVImamu4eL2CNI+YkEwaE6Me/klF7V9PnIkTGNZmqiD86TbH3KthEq3cEBD8IDnVbNngf+wyD5vnsL15YG2kG9LbTZWaa2rp2e0GRfYjlMIjgVxEdHcKBK5XPS3Bl9BkwX5GsjQT1783YBAOJ1uw+IJoB0L46T9wrTwDRp2A8ACmfYxIrJWefn1/b7z3t7aaZafKbGGu5/l5EHAfTfgCHVxGUIKX0j5xfW/0n5ZwawNAZMAIhdMr1GJyU5kEO3BsIVK/HwtehUgeAxwF+iUGLIzXWX+dsT52q/JjO7GSbve+Shf1IIALmkSBxcHBNUZWN0HCYW5hwE2znoXLaig4t/iIMTW5eO8qyrMOIcRqI6oqAKOmS4AYEWD4GouUskYXEMwMs+2mVZxamv8f9u9f6BwrJ32LCnsS5a6OhnwFg5kaXnDPNzYWSPnLKjBuBoIzKUgMx/bzF3dUR1KStR0N+ITYz84tEYi1LfxlAj0banVfyPZV/0hIe0FXtjoW09pHwxxFEFRFsZrkrQezKYP2nr/OLs9BZWQB/ZsYtHa/Yf2s6hvxCAfry/Ny79LT3AwJOBeFH5dYnI9/cEOAx8E+AgleCWYbsFrDegPCfr+5ymm/Ls7NkcOsjO9D9JgQdQsjV8qgGOCgRPi5fX5TPI7T4njxmwdiq15RjG8CSMGAEQklo12M0+BXhdsjjAXm9HgsFowbbrMuZ8BEF9/vzGCwRoaB8tBDbEfNQ1taxMg9n1E1hJjragvWveVHqEzX+1VH3ZaRpGY5K9scz+AGqkHMJX8fFOsFAq8Dy/eC/SSAQkpsdzLBynTEJI8Ha6xls1p91E/gsp8a5Q+XuYZ6GzTRNDBiBoInYUsGe+CZvsTbrXUjIVVg0o9QMEB4WsM9d/RLeMLsGapIRFFd6uw07S/auBHCEGlSD0iMGCNd1O/bl5Xz9uUfx9dHFRiD0wsTnDnYJuhaM/XpheJUREsPzCEcMHGw/fdvWtKYynK4sL4PXUe0R77s244+hFP6pLHrC85bxd5/57N5Sijo84srfkhEI5Z+jojycmnF/KRgXARhcFIBZVCwDLiTfw9K5KDWufO7DFxtMJayb3MY7Wb57KREdmxMKQR9SM8Ji4DMGLk3FnHJ5rRlW3H3CjvlD6sVpTqTdaxk4ibQ2c+rFBBYWWlDkKM3g2alYpLGwpWa2CgYSrdkEgc5gQlBSu1oFpsHYNANBMyYCbkvGnLMNT72TASMQemde10fFFE/7NxM4aKlrPjD15FoykAlua2CNdWFqd/pUjxmDmg8Dk55bNSgydPDlDPlDAgUltsu7XHM+QZXjHKK1zLIxFYucUo7uGZ/UMGAEghoeyxZl8gdcY7e7NwE0FYBVto5WomNEKyDlQ76k+QvGOo9XYgi91ed42j2AmOMg+jEAbS2Neyt/m4nLZ1DK77ROX7hbrgaKGb2UASMQemlivxjW5AxvbbN7DUBT+kC4YYToMvMiQVjcGIvcGoZBY6M4BurT2ZMlYy8imlTmnTyLC7Akq3iB1+mcs3C3vt1YrCTUh2zUCISQCS+VuSmvdA63+tszQTS9VD5UvF0Cg/G/DH68W3bdeXfdoKBkshllzsDPWnhYtSWPJeYDGfyTSunrUI60Mvi3ssO7ZME3+79bjv4Zn9QyYASCWj7LGq2+mbf3RfZMQcIcKiowUwx+EcJqdCAe+3Q02sqni2WBgfTR6RPvZatmT4wW0v0hgxIAgqqDZhTAADOukezeuKDOiIMCaKvoqUYgVHT6CnQ+1/URwwjyFwx5eYGr++r0d0HiMva9JxGJLE+NItOSuYKfhFwr6Wx2pCA6gElcCPDwCg4nNNcZmBGpsefM2Q6rTJfG0GgvuSEjEEqegvAdmL74vf7ZgVudQALXmu3WTfMvIU7xXXH/Fg4+VtlYJ/yMG4tfZeDUNFd1u9gya7s/JaKbDEObZIAZODvy2YrfzNlre2UN2AzflcGAEQiVkSf1XjJTfZt/HBhXMNic8v4Cw8TixJ1iYk4DgpI7ettXq0+sQSyIAWZqAOitjJtg0NyC1vb6yRTsFlyQHCN+a/4Oen2yNxqgEQh9M++fRz2luXtXS4hfg3LtYcPrG18+vAcHD4OrWqsZfJU/yGlcuK25ulU+6QnPk3XNztypAF0I0ECAB/TRHbYsAX+Tnjw3Na4q6DppRh9lwAiEPpr4L4fNFG915xLh+wCN6SOU+AC/B6Ll0uc7O710qmn8+Lw66fURfvpsmAcw26OW+XF4PBWCdgLnzin0kRoi3MbAE6mo8wuza9Bn/wQ+D9wIBPMMfM7AtGb3u9LCubkmT4Qteyk1PhjPAPwO2+Lu1Gj7f3tpnCYsBQxMbfN+LKQ8Fkw7EmHfXtJ+fCPM0CqAnxZk/3pelJ5WQJ2B6AUMGIHQC5KoMoSGBhbLJ8kzCPxtgA8HUKMSv3RYnGHGU4LoU9e3b1o4lpaVzhdjudIYqG/tGs1knQLQECb5XWIK+j1U/FjfT+FPDDw7cpE9u6GBZMUHZQJQxoARCMqo7F1A8WW8LXw5kdjfD0yHgxC8j62wQSsAPALmZhZyid8RedSUhq2wFJaZu8E5he6O7oMJ1jcIPA4QPwJ4qzJzc/PuMNaA+CFmPON57r137lzz/uYXmRl9jQEjEPpaxguM97jlPEq6/t4S8nvE9N8gDC0QIuzpWRA/wBB/BvCp3+2+tHDn6rfN+9Sw09Db7eVqiuzA8IOCS0NIyh8CNAFU7gd9aRUB9wD+k8KJ/GPuSLOT1tuf1J7EZwRCT9jrQ2uDfg6O79WSoC0k8Uww9iqX8Bn4iCQvYqKHhYBHwl46bxTeMqKgXDLUy/1gpslLsaPD3hgpYQvCQRJIELB12UROWMygy4XPK4Vjp+eOpg/LxjfjSNkyYARC2aamPB1rYBZtr3ftUOVU13jwdiCB88E4INzrYEFLZfkIC7HA9v1lLNj1raqVqVGm1XJ5PjV9y6vpbTzY5+6tSJLjk9gJ4CkgcTiYh4TFBAc1PIAnycZV8OTboEj7mpfwXtMx5Iflg7FT+QwYgVD5OSxZBIFYeO9FVHcMhl0j2yOu6H8ACMfnbkGAqxU5JkF4mn1eKKVzv2/DrfLBsgruyJHINpA5VKWIZwOjgYHgb2T5ckREN5xuC2R5cITwjyaLp4DxHQBCkdkuMD8l4fwmy+1PCjEwW/MZvO33RJf5G1HEcB+E+X+uu8kMBlrmDAAAAABJRU5ErkJggg==;" vertex="1" parent="1">
          <mxGeometry x="70" y="1636.54" width="100" height="86.92" as="geometry" />
        </mxCell>
      </root>
    </mxGraphModel>
  </diagram>
</mxfile>
